<?xml version="1.0" encoding="iso-8859-1"?>
<!-- Generator: Adobe Illustrator 19.0.0, SVG Export Plug-In . SVG Version: 6.00 Build 0)  -->
<svg version="1.1" id="Layer_1" xmlns="http://www.w3.org/2000/svg" xmlns:xlink="http://www.w3.org/1999/xlink" x="0px" y="0px"
	 viewBox="0 0 512 512" style="enable-background:new 0 0 512 512;" xml:space="preserve">
<g>
	<path style="fill:#CCD6DB;" d="M5.736,245.36L228.69,116.257v0.007l81.981-47.469l0.88-0.271c0.616-0.19,6.304-1.847,16.789-1.847
		c19.722,0,53.231,5.632,100.87,32.46c11.387,6.545,21.604,14.02,30.408,22.237c30.85,28.765,45.998,67.801,45.019,116.023
		l-0.162,7.964H5.736z"/>
	<path style="fill:#CCD6DB;" d="M496.476,302.355c-19.757-0.674-30.514-3.764-41.903-7.035c-12.162-3.509-24.733-7.136-49.545-7.136
		c-24.822,0-37.385,3.625-49.533,7.131c-12.842,3.687-24.964,7.168-49.823,7.168c-24.879,0-36.965-3.473-49.76-7.15
		c-12.191-3.515-24.792-7.148-49.596-7.148c-24.813,0-37.375,3.625-49.522,7.131c-12.841,3.687-24.963,7.168-49.823,7.168
		c-24.858,0-36.946-3.47-49.743-7.145c-10.944-3.15-22.254-6.406-42.237-7.035l-7.875-0.248v-43.711h497.765v58.299L496.476,302.355
		z"/>
</g>
<path style="fill:#8C6D4B;" d="M7.118,340.519v-53.512l8.407,0.288c19.765,0.675,30.52,3.766,41.906,7.038
	c12.197,3.507,24.808,7.133,49.541,7.133c24.746,0,37.327-3.621,49.494-7.123c12.816-3.69,24.921-7.176,49.852-7.176
	c24.932,0,37.021,3.481,49.819,7.166c12.182,3.506,24.782,7.132,49.537,7.132c24.744,0,37.326-3.621,49.494-7.123
	c12.816-3.69,24.921-7.176,49.862-7.176c24.942,0,37.022,3.482,49.811,7.166c10.91,3.139,22.195,6.386,42.169,7.014l7.875,0.248
	v38.923H7.118z"/>
<path style="fill:#7AAB02;" d="M7.118,430.902v-53.512l8.407,0.288c19.769,0.674,30.522,3.766,41.907,7.039
	c12.194,3.506,24.802,7.132,49.541,7.132c24.745,0,37.327-3.621,49.495-7.122c12.817-3.691,24.919-7.176,49.851-7.176
	s37.02,3.481,49.817,7.166c12.185,3.506,24.784,7.132,49.539,7.132c24.748,0,37.33-3.621,49.498-7.123
	c12.815-3.69,24.917-7.175,49.858-7.175c24.941,0,37.02,3.481,49.808,7.166c10.913,3.139,22.197,6.385,42.172,7.014l7.875,0.248
	v38.923H7.118V430.902z"/>
<rect x="7.114" y="429.891" style="fill:#4A8EA5;" width="497.775" height="46.632"/>
<path style="fill:#FFA834;" d="M496.475,392.737c-19.753-0.675-30.51-3.764-41.899-7.034c-12.164-3.51-24.736-7.137-49.548-7.137
	c-24.823,0-37.385,3.625-49.533,7.131c-12.839,3.687-24.96,7.167-49.823,7.167c-24.88,0-36.966-3.473-49.762-7.15
	c-12.191-3.515-24.791-7.148-49.594-7.148c-24.813,0-37.375,3.625-49.522,7.131c-12.841,3.687-24.963,7.167-49.823,7.167
	c-24.862,0-36.95-3.47-49.748-7.146c-10.941-3.149-22.249-6.404-42.232-7.033l-7.875-0.248v-38.934h497.765v53.522L496.475,392.737z
	"/>
<path style="fill:#A81124;" d="M374.227,212.872c-9.367,0-18.346-3.307-25.967-9.564c-11.929-9.806-19.051-25.749-19.051-42.65
	c0-27.262,18.351-50.143,41.778-52.091c1.069-0.087,2.158-0.132,3.24-0.132c24.829,0,45.029,23.427,45.029,52.224
	C419.256,189.449,399.056,212.872,374.227,212.872z"/>
<path style="fill:#FF1D25;" d="M277.889,180.678c-2.727,0-5.47-0.289-8.153-0.859c-21.367-4.552-36.876-26.152-36.876-51.365
	c0-28.791,20.199-52.213,45.029-52.213c10.99,0,21.571,4.647,29.794,13.085c9.682,9.916,15.235,24.178,15.235,39.129
	C322.918,157.251,302.719,180.678,277.889,180.678z"/>
<path style="fill:#A81124;" d="M369.263,144.019c-2.73,0-5.472-0.29-8.154-0.859c-21.367-4.551-36.875-26.152-36.875-51.364
	c0-28.791,20.2-52.213,45.029-52.213c10.99,0,21.572,4.647,29.794,13.085c9.682,9.916,15.235,24.179,15.235,39.129
	C414.291,120.591,394.092,144.019,369.263,144.019z"/>
<path style="fill:#FF1D25;" d="M335.836,91.226c-1.19-6.301-3.268-12.36-6.178-18.01l-0.29-0.563l-0.042-0.631
	c-0.055-0.816-0.087-1.632-0.098-2.449l-0.009-0.689l0.288-0.625c7.861-17.085,23.093-27.698,39.75-27.698
	c21.025,0,39.525,17.274,43.991,41.073l1.421,7.573l-6.218-4.551c-8.721-6.383-18.838-9.757-29.255-9.757
	c-14.334,0-27.861,6.318-38.089,17.79l-4.122,4.623L335.836,91.226z"/>
<path style="fill:#E5E9EA;" d="M313.948,76.292l-1.498,0.867c0.372,0.318,0.736,0.645,1.1,0.974
	C313.678,77.516,313.805,76.9,313.948,76.292z"/>
<path style="fill:#FF1D25;" d="M389.176,151.898c0,25.944-17.225,47.244-38.982,49.053c-10.843-8.912-17.936-23.647-17.936-40.293
	c0-25.934,17.225-47.244,38.982-49.053C382.072,120.507,389.176,135.253,389.176,151.898z"/>
<path style="fill:#A81124;" d="M319.869,128.454c0,27.113-18.831,49.175-41.98,49.175c-2.561,0-5.081-0.274-7.52-0.793
	c-8.8-9.014-14.369-22.255-14.369-37.001c0-27.113,18.831-49.175,41.98-49.175c2.571,0,5.081,0.274,7.52,0.793
	C314.301,100.468,319.869,113.709,319.869,128.454z"/>
<g>
	<path style="fill:#E5E9EA;" d="M363.608,237.23H102.917l127.088-73.584l12.72-7.368c0.274,11.158,4.728,20.66,9.454,29.714
		c9.939,19.074,28.353,31.919,49.378,31.919c12.063,0,23.271-4.227,32.509-11.443c2.815-2.185,5.447-4.654,7.866-7.368
		c1.291,6.819,3.536,13.252,6.585,19.085C352.378,225.615,357.52,232.088,363.608,237.23z"/>
	<path style="fill:#E5E9EA;" d="M496.509,237.23h-64.317c13.912-11.758,22.926-30.487,22.926-51.533
		c0-14.39-4.207-27.692-11.321-38.423c1.108-2.419,5.711-11.056,10.274-19.959C483.227,154.5,497.444,191.206,496.509,237.23z"/>
	<path style="fill:#E5E9EA;" d="M496.753,268.378v25.853c-18.759-0.64-29.084-3.608-39.948-6.727
		c-12.713-3.669-25.863-7.449-51.776-7.449c-25.924,0-39.074,3.78-51.787,7.449c-12.245,3.516-23.81,6.849-47.569,6.849
		c-23.769,0-35.334-3.333-47.569-6.849c-12.723-3.669-25.873-7.449-51.787-7.449s-39.063,3.78-51.776,7.449
		c-12.245,3.516-23.81,6.849-47.569,6.849s-35.324-3.333-47.569-6.849c-11.402-3.282-23.17-6.666-44.155-7.327v-11.798
		L496.753,268.378L496.753,268.378z"/>
</g>
<path style="fill:#A58763;" d="M496.753,328.03v4.36H15.247v-18.414c18.759,0.63,29.084,3.597,39.937,6.717
	c12.723,3.669,25.873,7.449,51.787,7.449s39.063-3.78,51.776-7.449c12.245-3.516,23.81-6.849,47.569-6.849
	s35.324,3.333,47.569,6.849c12.713,3.669,25.873,7.449,51.787,7.449s39.063-3.78,51.776-7.449
	c12.245-3.516,23.81-6.849,47.579-6.849c23.759,0,35.324,3.333,47.559,6.849C464,323.985,475.758,327.359,496.753,328.03z"/>
<path style="fill:#8FCC05;" d="M496.753,415.099v7.672H15.247v-21.727c18.759,0.64,29.084,3.608,39.937,6.727
	c12.723,3.658,25.873,7.449,51.787,7.449s39.063-3.791,51.776-7.449c12.245-3.526,23.81-6.849,47.569-6.849
	s35.324,3.323,47.569,6.849c12.713,3.658,25.873,7.449,51.787,7.449s39.063-3.791,51.776-7.449
	c12.245-3.526,23.81-6.849,47.579-6.849c23.759,0,35.324,3.323,47.559,6.849C464,411.055,475.758,414.439,496.753,415.099z"/>
<rect x="15.243" y="453.204" style="fill:#6DA7C0;" width="481.505" height="15.182"/>
<path style="fill:#FCC062;" d="M496.753,366.189v18.424c-18.759-0.64-29.084-3.608-39.948-6.727
	c-12.713-3.669-25.863-7.449-51.776-7.449c-25.924,0-39.074,3.78-51.787,7.449c-12.245,3.516-23.81,6.849-47.569,6.849
	c-23.769,0-35.334-3.333-47.569-6.849c-12.723-3.669-25.873-7.449-51.787-7.449s-39.063,3.78-51.776,7.449
	c-12.245,3.516-23.81,6.849-47.569,6.849s-35.324-3.333-47.569-6.849c-11.402-3.282-23.17-6.666-44.155-7.327v-4.37L496.753,366.189
	L496.753,366.189z"/>
<path d="M488.561,145.069c-14.484-22.674-35.269-41.16-62.146-55.392c-1.443-34.083-26.524-61.314-57.152-61.314
	c-20.52,0-38.543,12.228-48.644,30.545c-1.092-0.14-2.171-0.292-3.272-0.425l-2.531-0.308l-17.054,9.875
	c-6.192-2.589-12.884-4.009-19.867-4.009c-26.344,0-48.574,20.151-55.2,47.475L0,240.46v243.176h512V237.231h-0.246
	C512.119,220.472,512.59,182.688,488.561,145.069z M369.263,43.607c23.147,0,41.979,22.059,41.979,49.172
	c0,5.813-0.871,11.39-2.459,16.57c-9.608-8.219-21.579-13.11-34.55-13.11c-15.741,0-30.016,7.194-40.372,18.811
	c-1.27-6.727-3.482-13.062-6.462-18.839c-0.067-1.135-0.114-2.277-0.114-3.432C327.284,65.666,346.115,43.607,369.263,43.607z
	 M416.211,160.654c0,27.114-18.832,49.172-41.979,49.172c-23.147,0-41.98-22.059-41.98-49.172c0-27.114,18.832-49.172,41.98-49.172
	C397.38,111.482,416.211,133.54,416.211,160.654z M277.892,79.285c23.147,0,41.979,22.058,41.979,49.172
	s-18.832,49.172-41.979,49.172s-41.979-22.059-41.979-49.172C235.913,101.344,254.745,79.285,277.892,79.285z M220.711,130.277
	c0.862,34.677,26.171,62.595,57.182,62.595c15.741,0,30.016-7.194,40.371-18.811c5.497,29.105,28.499,51.008,55.967,51.008
	c31.553,0,57.222-28.897,57.222-64.415c0-14.39-4.215-27.691-11.326-38.426c2.292-4.995,4.025-10.363,5.094-16.009
	c48.573,27.947,72.482,71.743,71.285,131.012H35.995L220.711,130.277z M496.757,468.393H15.243V438.02h481.513V468.393z
	 M496.757,422.777H15.243v-36.972c18.763,0.633,29.091,3.603,39.945,6.726c12.719,3.661,25.871,7.447,51.783,7.447
	c25.913,0,39.063-3.785,51.782-7.447c12.241-3.524,23.804-6.852,47.565-6.852c23.762,0,35.326,3.328,47.567,6.852
	c12.719,3.661,25.871,7.447,51.784,7.447c25.915,0,39.067-3.785,51.787-7.447c12.242-3.523,23.806-6.852,47.569-6.852
	c23.763,0,35.327,3.328,47.569,6.852c11.407,3.283,23.169,6.664,44.165,7.328v22.918H496.757z M496.757,384.609
	c-18.766-0.633-29.093-3.603-39.949-6.726c-12.719-3.661-25.871-7.447-51.785-7.447s-39.067,3.785-51.787,7.447
	c-12.242,3.523-23.806,6.852-47.569,6.852c-23.762,0-35.326-3.328-47.567-6.852c-12.719-3.661-25.871-7.447-51.784-7.447
	s-39.063,3.785-51.783,7.447c-12.241,3.524-23.804,6.852-47.565,6.852c-23.762,0-35.325-3.328-47.566-6.852
	c-11.404-3.283-23.166-6.664-44.16-7.328v-22.918h481.513V384.609z M496.757,332.393H15.243v-36.972
	c18.763,0.633,29.091,3.603,39.945,6.726c12.719,3.661,25.871,7.447,51.783,7.447c25.913,0,39.063-3.785,51.782-7.447
	c12.241-3.524,23.804-6.852,47.565-6.852c23.762,0,35.326,3.328,47.567,6.852c12.719,3.661,25.871,7.447,51.784,7.447
	c25.915,0,39.067-3.785,51.787-7.447c12.242-3.523,23.806-6.852,47.569-6.852c23.763,0,35.327,3.328,47.569,6.852
	c11.407,3.283,23.169,6.664,44.165,7.328v22.918H496.757z M496.757,294.226c-18.766-0.633-29.093-3.603-39.949-6.726
	c-12.719-3.661-25.871-7.447-51.785-7.447s-39.067,3.785-51.787,7.447c-12.242,3.523-23.806,6.852-47.569,6.852
	c-23.762,0-35.326-3.328-47.567-6.852c-12.719-3.661-25.871-7.447-51.784-7.447s-39.063,3.785-51.783,7.447
	c-12.241,3.524-23.804,6.852-47.565,6.852c-23.762,0-35.325-3.328-47.566-6.852c-11.404-3.283-23.166-6.664-44.16-7.328v-27.696
	h481.513V294.226z"/>
<g>
	<path style="fill:#FFFFFF;" d="M448.273,196.36c4.69,3.926,9.491,7.606,14.272,10.938l8.716-12.506
		c-4.413-3.076-8.855-6.481-13.203-10.121L448.273,196.36z"/>
	<path style="fill:#FFFFFF;" d="M237.371,212.762c4.689,3.927,9.491,7.607,14.273,10.939l8.714-12.507
		c-4.413-3.075-8.854-6.479-13.201-10.12L237.371,212.762z"/>
	<path style="fill:#FFFFFF;" d="M185.787,185.831c4.695,3.93,9.497,7.609,14.273,10.938l8.714-12.507
		c-4.409-3.072-8.85-6.477-13.202-10.12L185.787,185.831z"/>
	<path style="fill:#FFFFFF;" d="M136.634,207.499c4.691,3.927,9.493,7.606,14.272,10.938l8.715-12.507
		c-4.412-3.075-8.854-6.479-13.203-10.12L136.634,207.499z"/>
</g>
<g>
	<circle style="fill:#FC4F5C;" cx="358.157" cy="59.882" r="9.143"/>
	<circle style="fill:#FC4F5C;" cx="381.926" cy="59.716" r="3.158"/>
	<circle style="fill:#FC4F5C;" cx="360.717" cy="145.594" r="17.139"/>
	<circle style="fill:#FC4F5C;" cx="352.171" cy="176.751" r="7.813"/>
	<circle style="fill:#FC4F5C;" cx="261.158" cy="96.958" r="5.153"/>
	<circle style="fill:#FC4F5C;" cx="247.856" cy="117.069" r="8.15"/>
	<circle style="fill:#FC4F5C;" cx="250.59" cy="153.551" r="2.732"/>
</g>
<g>
</g>
<g>
</g>
<g>
</g>
<g>
</g>
<g>
</g>
<g>
</g>
<g>
</g>
<g>
</g>
<g>
</g>
<g>
</g>
<g>
</g>
<g>
</g>
<g>
</g>
<g>
</g>
<g>
</g>
</svg>
