<?xml version="1.0" encoding="iso-8859-1"?>
<!-- Generator: Adobe Illustrator 19.0.0, SVG Export Plug-In . SVG Version: 6.00 Build 0)  -->
<svg version="1.1" id="Layer_1" xmlns="http://www.w3.org/2000/svg" xmlns:xlink="http://www.w3.org/1999/xlink" x="0px" y="0px"
	 viewBox="0 0 511.999 511.999" style="enable-background:new 0 0 511.999 511.999;" xml:space="preserve">
<path style="fill:#A58763;" d="M414.873,265.584c-8.198,0-12.311-5.141-16.289-10.113c-4.012-5.008-7.802-9.74-15.497-9.74
	c-7.684,0-11.471,4.727-15.479,9.73c-3.98,4.976-8.098,10.123-16.296,10.123c-8.198,0-12.311-5.141-16.289-10.113
	c-4.004-5.01-7.784-9.74-15.486-9.74c-7.683,0-11.465,4.719-15.467,9.716c-3.987,4.983-8.11,10.137-16.308,10.137
	c-8.198,0-12.311-5.141-16.289-10.113c-4.012-5.008-7.803-9.74-15.486-9.74s-11.465,4.719-15.467,9.716
	c-3.986,4.983-8.11,10.137-16.308,10.137c-8.208,0-12.314-5.145-16.285-10.121c-4.006-5.001-7.797-9.732-15.48-9.732
	c-7.703,0-11.483,4.73-15.484,9.737c-3.979,4.975-8.093,10.116-16.291,10.116c-8.198,0-12.311-5.141-16.289-10.113
	c-2.399-3.002-4.876-6.099-8.257-7.96c-2.187-1.219-4.476-1.78-7.229-1.78c-7.703,0-11.482,4.73-15.483,9.736
	c-3.981,4.975-8.094,10.117-16.292,10.117s-12.311-5.141-16.289-10.113c-2.754-3.435-5.878-7.334-10.342-8.904l-5.791-2.036
	l0.332-6.13c0.939-17.369,7.326-77.424,50.04-120.951c20.466-20.873,46.685-35.533,77.926-43.57l0.113-0.028
	c27.616-6.437,45.679-9.063,62.342-9.063c19.156,0,36.656,3.404,63.2,9.01l0.349,0.082c10.231,2.632,20.02,6.004,29.098,10.021
	c18.672,8.254,35.101,19.543,48.831,33.553c42.719,43.543,49.107,103.583,50.047,120.947l0.332,6.13l-5.791,2.036
	c-4.479,1.576-7.598,5.467-10.35,8.901C427.187,260.44,423.072,265.584,414.873,265.584z"/>
<g>
	<path style="fill:#4A8EA5;" d="M146.069,504.836L96.799,266.05l6.205-2.609c4.071-1.712,6.885-5.22,9.606-8.613
		c3.978-4.972,8.096-10.12,16.286-10.12c4.798,0,8.599,1.702,12.325,5.517c1.104,1.127,2.294,2.511,3.975,4.622
		c2.814,3.524,6.009,7.526,10.775,9.03l5.242,1.654l19.812,239.305H146.069z"/>
	<path style="fill:#4A8EA5;" d="M116.923,504.836L67.609,259.103l12.626-5.964l2.531,3.101c3.142,3.849,6.063,6.644,10.112,7.767
		l4.818,1.337l49.42,239.492h-30.193V504.836z"/>
	<path style="fill:#4A8EA5;" d="M180.008,504.836l-19.79-239.022l5.807-2.167c4.388-1.638,7.44-5.451,10.132-8.815
		c3.982-4.977,8.099-10.123,16.289-10.123c4.78,0,8.577,1.697,12.311,5.503c1.35,1.378,2.71,3.042,3.979,4.636
		c2.773,3.466,5.925,7.405,10.543,8.951l5.462,1.828l5.133,239.21L180.008,504.836L180.008,504.836z"/>
	<path style="fill:#4A8EA5;" d="M228.847,504.836l-5.129-239.118l5.604-1.964c4.508-1.58,7.625-5.479,10.375-8.92
		c3.983-4.979,8.101-10.126,16.291-10.126c4.798,0,8.602,1.705,12.335,5.526c1.229,1.254,2.468,2.744,3.95,4.594
		c2.741,3.43,5.842,7.312,10.34,8.902l5.644,1.997l-7.638,239.109L228.847,504.836L228.847,504.836z"/>
</g>
<path style="fill:#8BBFD1;" d="M366.171,504.836l49.435-239.567l4.374-1.532c3.639-1.275,6.332-3.923,9.254-7.503l2.531-3.101
	l12.626,5.964l-49.317,245.739H366.171z"/>
<g>
	<path style="fill:#4A8EA5;" d="M279.596,504.836l7.635-239.229l5.426-1.797c4.632-1.535,7.798-5.49,10.592-8.979
		c3.981-4.977,8.098-10.123,16.288-10.123c6.761,0,10.788,3.605,14.133,7.5c0.67,0.784,1.387,1.657,2.171,2.642
		c2.843,3.552,6.078,7.592,10.908,9.063l6.318,1.925l-19.782,238.997H279.596z"/>
	<path style="fill:#4A8EA5;" d="M332.258,504.836l19.399-234.289l0.39-5.111l4.81-1.866c4.279-1.66,7.287-5.419,9.941-8.735
		c3.984-4.98,8.1-10.127,16.291-10.127c6.79,0,10.81,3.605,14.142,7.501c0.731,0.84,1.51,1.81,2.173,2.643
		c2.731,3.418,5.836,7.304,10.328,8.884l6.747,2.373l-49.265,238.726L332.258,504.836L332.258,504.836z"/>
</g>
<path style="fill:#FF1D25;" d="M307.167,74.865c0,7.194-1.484,14.04-4.165,20.252c-7.849,18.185-25.942,30.905-47.003,30.905
	c-28.255,0-51.158-22.903-51.158-51.158c0-26.955,20.836-49.039,47.269-51.014c1.289-0.102,2.579-0.154,3.889-0.154
	C284.254,23.697,307.167,46.6,307.167,74.865z"/>
<path style="fill:#A81124;" d="M307.167,74.865c0,7.194-1.484,14.04-4.165,20.252c-5.567,2.487-11.748,3.879-18.246,3.879
	c-24.673,0-44.67-19.996-44.67-44.67c0-11.779,4.564-22.493,12.024-30.476c1.289-0.102,2.579-0.154,3.889-0.154
	C284.254,23.697,307.167,46.6,307.167,74.865z"/>
<g>
	<path style="fill:#6DA7C0;" d="M172.132,496.65h-6.447l-46.573-225.661c5.987-2.517,9.804-7.266,12.823-11.042
		c1.32-1.658,2.425-2.978,3.428-4.001c1.003,1.023,2.108,2.343,3.428,4.001c0.266,0.327,0.532,0.665,0.798,1.003
		c3.213,3.981,7.368,8.668,13.918,10.735L172.132,496.65z"/>
	<path style="fill:#6DA7C0;" d="M221.509,496.65h-21.03l-18.656-225.334c6.478-2.415,10.5-7.419,13.662-11.37
		c1.32-1.658,2.425-2.978,3.428-4.001c0.86,0.87,1.781,1.965,2.855,3.295c0.174,0.225,0.368,0.461,0.563,0.706
		c3.275,4.093,7.471,9.313,14.348,11.615L221.509,496.65z"/>
	<path style="fill:#6DA7C0;" d="M279.882,271.449l-7.194,225.2h-22.882l-4.84-225.17c6.723-2.354,10.837-7.501,14.071-11.533
		c1.32-1.658,2.425-2.978,3.428-3.991c1.003,1.023,2.098,2.343,3.418,3.991c0.123,0.153,0.246,0.307,0.379,0.471
		C269.413,264.357,273.455,269.176,279.882,271.449z"/>
	<path style="fill:#6DA7C0;" d="M344.363,271.745l-18.615,224.904h-21.869l7.184-225.067c6.918-2.292,11.124-7.532,14.409-11.636
		c0.716-0.901,1.371-1.699,1.985-2.405c0.604,0.706,1.259,1.504,1.975,2.405c1.034,1.3,2.159,2.702,3.438,4.083
		C335.737,267.161,339.359,270.22,344.363,271.745z"/>
	<path style="fill:#6DA7C0;" d="M407.014,271.459l-43.196,209.328l-0.01,0.061l-3.265,15.801h-3.561l18.666-225.446
		c6.304-2.446,10.264-7.368,13.375-11.257c0.716-0.901,1.371-1.709,1.985-2.415c0.614,0.706,1.269,1.515,1.985,2.415
		c0.89,1.105,1.842,2.303,2.906,3.5C398.673,266.588,402.163,269.749,407.014,271.459z"/>
</g>
<path d="M402.165,112.554c-22.412-22.895-50.964-38.464-85.271-46.594c-1.136-8.48-3.993-16.42-8.231-23.445
	c10.217-10.318,20.127-22.893,25.736-36.76l-7.114-2.879l0,0L320.169,0c-4.503,11.132-12.552,21.537-21.111,30.361
	C287.961,19.449,272.756,12.7,256,12.7c-31.107,0-56.872,23.237-60.894,53.262c-34.306,8.129-62.86,23.698-85.271,46.593
	C65.962,157.372,58.93,216.423,57.852,237.549l53.202,274.45h289.89l53.203-274.45C453.069,216.423,446.038,157.373,402.165,112.554
	z M256,28.05c12.357,0,23.586,4.896,31.873,12.839c-5.524,4.776-10.702,8.715-14.682,11.573c-0.445-2.87-0.256-5.163-0.192-5.756
	l-7.624-0.877l0,0l0,0l-7.619-0.929c-1.209,9.91,2.092,30.316,23.226,36.613l2.192-7.356l0,0l2.192-7.356
	c-1.368-0.407-2.582-0.922-3.67-1.514c4.161-2.961,9.562-7.035,15.385-12.022c3.205,6.276,5.026,13.373,5.026,20.892
	c0,25.423-20.684,46.106-46.106,46.106c-25.423,0-46.106-20.683-46.106-46.106S230.576,28.05,256,28.05z M123.631,496.65
	L76.423,261.416c3.283,4.023,7.56,8.619,14.265,10.479l46.379,224.753h-13.436V496.65z M152.742,496.65l-46.566-225.66
	c5.988-2.52,9.8-7.265,12.823-11.042c4.092-5.115,6.006-7.047,9.894-7.047c3.889,0,5.802,1.933,9.895,7.047
	c3.331,4.162,7.622,9.495,14.725,11.733l18.624,224.969H152.742z M187.54,496.65l-18.654-225.332
	c6.474-2.414,10.501-7.419,13.662-11.37c4.093-5.115,6.006-7.047,9.895-7.047c3.888,0,5.8,1.932,9.893,7.047
	c3.271,4.088,7.461,9.314,14.34,11.619l4.834,225.083H187.54z M272.688,496.65h-35.825l-4.835-225.175
	c6.716-2.352,10.837-7.494,14.064-11.528c4.092-5.114,6.005-7.047,9.893-7.047c3.889,0,5.802,1.932,9.895,7.047
	c3.216,4.02,7.322,9.139,13.999,11.5L272.688,496.65z M288.046,496.65l7.186-225.063c6.919-2.294,11.127-7.538,14.409-11.639
	c4.093-5.115,6.007-7.047,9.896-7.047c3.89,0,5.802,1.933,9.896,7.047c3.363,4.202,7.706,9.596,14.933,11.795L325.747,496.65
	H288.046z M341.151,496.65l18.663-225.442c6.309-2.453,10.266-7.367,13.381-11.26c4.093-5.115,6.007-7.047,9.896-7.047
	c3.891,0,5.804,1.933,9.898,7.048c3.222,4.025,7.333,9.152,14.025,11.511l-46.469,225.191L341.151,496.65L341.151,496.65z
	 M388.369,496.65H376.22l46.469-225.186c5.923-2.076,9.837-6.312,12.889-10.052L388.369,496.65z M424.771,250.356
	c-4.094,5.115-6.008,7.048-9.898,7.048c-3.891,0-5.804-1.933-9.898-7.048c-4.326-5.404-10.25-12.805-21.882-12.805
	c-11.633,0-17.556,7.401-21.88,12.806c-4.093,5.115-6.007,7.047-9.896,7.047s-5.802-1.933-9.896-7.047
	c-4.325-5.404-10.249-12.806-21.88-12.806s-17.556,7.402-21.88,12.806c-4.093,5.115-6.007,7.047-9.896,7.047
	c-3.889,0-5.802-1.933-9.895-7.047c-4.326-5.404-10.249-12.806-21.88-12.806c-11.632,0-17.555,7.402-21.878,12.806
	c-4.092,5.114-6.005,7.047-9.893,7.047c-3.888,0-5.801-1.932-9.893-7.047c-4.325-5.404-10.247-12.806-21.878-12.806
	c-11.633,0-17.556,7.402-21.88,12.806c-4.092,5.115-6.006,7.047-9.895,7.047c-3.889,0-5.802-1.933-9.895-7.047
	c-4.326-5.404-10.249-12.806-21.88-12.806s-17.555,7.402-21.879,12.806c-4.092,5.114-6.006,7.047-9.894,7.047
	s-5.8-1.932-9.893-7.047c-3.221-4.025-7.332-9.154-14.024-11.512c1.005-18.533,7.415-74.589,47.712-115.665
	c19.509-19.886,44.321-33.707,74.123-41.373c3.779,30.288,29.668,53.807,60.964,53.807s57.184-23.519,60.964-53.807
	c29.802,7.666,54.613,21.487,74.122,41.373c40.3,41.079,46.708,97.139,47.712,115.664
	C432.105,241.202,427.992,246.331,424.771,250.356z"/>
<g>
	<path style="fill:#C6A98D;" d="M359.794,118.541l-9.505,12.053c13.282,10.474,31.013,27.576,40.057,49.569l14.197-5.838
		C394.233,149.256,374.517,130.153,359.794,118.541z"/>
	<path style="fill:#C6A98D;" d="M400.205,208.763l14.774-4.167c-1.693-6-3.656-11.923-5.837-17.604l-14.33,5.501
		C396.824,197.74,398.638,203.213,400.205,208.763z"/>
</g>
<path style="fill:#8C6D4B;" d="M344.783,91.388c-2.838,29.261-37.956,79.478-103.046,70.775
	c-49.061-6.56-94.331,26.954-101.357,75.951c-0.105,0.737-0.209,1.478-0.31,2.224c-3.029-1.689-6.672-2.794-11.175-2.794
	c-11.636,0-17.561,7.409-21.879,12.812c-4.093,5.117-6.007,7.041-9.896,7.041c-3.889,0-5.802-1.924-9.896-7.041
	c-3.224-4.022-7.327-9.159-14.02-11.513c1.003-18.533,7.409-74.593,47.709-115.66c19.505-19.894,44.322-33.709,74.122-41.374
	c3.776,30.281,29.667,53.808,60.962,53.808s57.185-23.527,60.962-53.808C326.782,84.337,336.064,87.53,344.783,91.388z"/>
<g>
	<circle style="fill:#C6A98D;" cx="327.895" cy="193.558" r="29.933"/>
	<circle style="fill:#C6A98D;" cx="250.539" cy="199.391" r="13.042"/>
</g>
<g>
	<circle style="fill:#A58763;" cx="117.267" cy="168.189" r="4.565"/>
	<circle style="fill:#A58763;" cx="204.324" cy="146.658" r="4.565"/>
	<circle style="fill:#A58763;" cx="321.304" cy="109.653" r="4.565"/>
	<circle style="fill:#A58763;" cx="284.443" cy="142.093" r="4.565"/>
	<circle style="fill:#A58763;" cx="150.188" cy="131.819" r="4.565"/>
	<circle style="fill:#A58763;" cx="150.188" cy="159.061" r="4.565"/>
	<circle style="fill:#A58763;" cx="176.693" cy="107.023" r="4.565"/>
	<circle style="fill:#A58763;" cx="119.999" cy="203.956" r="4.565"/>
	<circle style="fill:#A58763;" cx="98.212" cy="212.439" r="4.565"/>
</g>
<g>
	<circle style="fill:#FC4F5C;" cx="228.373" cy="76.322" r="13.718"/>
	<circle style="fill:#FC4F5C;" cx="247.274" cy="102.459" r="7.194"/>
</g>
<g>
	<path style="fill:#8BBFD1;" d="M172.132,496.65h-3.745l-28.797-235.7c3.213,3.981,7.368,8.668,13.918,10.735L172.132,496.65z"/>
	<path style="fill:#8BBFD1;" d="M221.509,496.65h-12.587l-7.153-237.409c0.174,0.225,0.368,0.461,0.563,0.706
		c3.275,4.093,7.471,9.313,14.348,11.615L221.509,496.65z"/>
	<path style="fill:#8BBFD1;" d="M279.882,271.449l-7.194,225.2h-10.182l3.756-236.232
		C269.413,264.357,273.455,269.176,279.882,271.449z"/>
	<path style="fill:#8BBFD1;" d="M344.363,271.745l-18.615,224.904h-9.006l16.128-232.62
		C335.737,267.161,339.359,270.22,344.363,271.745z"/>
	<path style="fill:#8BBFD1;" d="M407.014,271.459l-43.196,209.328L395.9,263.446C398.673,266.588,402.163,269.749,407.014,271.459z"
		/>
</g>
<g>
</g>
<g>
</g>
<g>
</g>
<g>
</g>
<g>
</g>
<g>
</g>
<g>
</g>
<g>
</g>
<g>
</g>
<g>
</g>
<g>
</g>
<g>
</g>
<g>
</g>
<g>
</g>
<g>
</g>
</svg>
