<?xml version="1.0" encoding="iso-8859-1"?>
<!-- Generator: Adobe Illustrator 19.0.0, SVG Export Plug-In . SVG Version: 6.00 Build 0)  -->
<svg version="1.1" id="Layer_1" xmlns="http://www.w3.org/2000/svg" xmlns:xlink="http://www.w3.org/1999/xlink" x="0px" y="0px"
	 viewBox="0 0 512 512" style="enable-background:new 0 0 512 512;" xml:space="preserve">
<rect x="62.766" y="470.609" style="fill:#ABB2B7;" width="386.468" height="34.195"/>
<path style="fill:#FFA834;" d="M467.215,365.957c-9.046,0-13.594-5.315-17.99-10.455c-4.252-4.97-8.647-10.107-17.223-10.107
	c-8.554,0-12.947,5.134-17.195,10.099c-4.412,5.147-8.969,10.463-18.007,10.463c-9.048,0-13.595-5.315-17.991-10.456
	c-4.252-4.969-8.648-10.106-17.212-10.106c-8.563,0-12.959,5.137-17.211,10.105c-4.612,5.38-8.965,10.457-17.992,10.457
	c-9.035,0-13.387-5.075-17.994-10.448c-4.256-4.975-8.652-10.115-17.219-10.115c-8.555,0-12.947,5.134-17.195,10.1
	c-4.617,5.384-8.973,10.462-17.997,10.462c-9.047,0-13.594-5.315-17.991-10.455c-4.251-4.969-8.647-10.107-17.213-10.107
	c-8.564,0-12.96,5.138-17.213,10.107c-4.396,5.14-8.943,10.455-17.991,10.455c-9.037,0-13.591-5.312-17.995-10.449
	c-4.255-4.974-8.653-10.114-17.208-10.114c-8.565,0-12.958,5.135-17.206,10.1c-4.616,5.382-8.972,10.462-17.997,10.462
	c-9.046,0-13.594-5.314-17.99-10.455c-4.251-4.969-8.646-10.107-17.212-10.107c-7.749,0-11.933,4.053-15.88,8.569
	c-0.475,0.536-0.891,1.015-1.287,1.487c-4.434,5.183-8.989,10.506-18.035,10.506s-13.594-5.315-17.991-10.455
	c-3.12-3.646-6.655-7.777-11.885-9.36l-5.841-1.768v-24.805c0-0.099,0.379-10.537,6.451-21.413
	c5.291-9.474,15.895-20.931,36.364-21.712c0.402-0.014,0.793-0.022,1.184-0.022c3.318,0,6.795,0.516,10.616,1.578
	c26.303-66.898,89.699-110.099,161.636-110.099h61.378c42.699,0,83.6,15.418,115.168,43.411
	c20.34,18.024,36.401,41.076,46.469,66.687c0.339-0.094,0.69-0.185,1.046-0.27l0.81-0.283l0.464-0.015
	c0.254-0.057,0.511-0.11,0.771-0.16l0.488-0.096c0.232-0.051,0.454-0.09,0.688-0.124c2.401-0.404,4.83-0.61,7.221-0.61
	c4.939,0,9.779,0.832,14.385,2.471c13.77,4.878,24.365,16.744,27.649,30.965c0.727,3.182,1.094,6.44,1.094,9.694v24.804
	l-5.842,1.768c-4.809,1.455-8.104,4.959-11.332,8.727c0,0-0.405,0.462-0.551,0.632C480.808,360.644,476.252,365.957,467.215,365.957
	z"/>
<path style="fill:#CCD6DB;" d="M97.211,471.637L34.42,366.23l12.65-1.443c7.093-0.809,11.07-5.458,14.916-9.954
	c4.402-5.146,8.953-10.466,17.991-10.466s13.589,5.319,17.991,10.464c4.247,4.966,8.639,10.098,17.212,10.098
	c8.563,0,12.955-5.133,17.202-10.097c4.413-5.147,8.972-10.465,18-10.465c9.037,0,13.589,5.319,17.99,10.464
	c4.248,4.966,8.64,10.098,17.213,10.098c8.573,0,12.965-5.132,17.212-10.096c4.403-5.147,8.955-10.466,17.991-10.466
	c9.037,0,13.588,5.319,17.99,10.463c4.248,4.967,8.64,10.099,17.214,10.099c8.563,0,12.954-5.132,17.201-10.096
	c4.617-5.385,8.973-10.466,17.991-10.466c9.027,0,13.384,5.08,17.996,10.458c4.251,4.97,8.643,10.104,17.217,10.104
	c8.585,0,12.961-5.129,17.196-10.09c4.418-5.153,8.978-10.472,18.007-10.472c9.038,0,13.59,5.319,17.99,10.464
	c4.248,4.966,8.638,10.098,17.213,10.098c8.573,0,12.964-5.132,17.211-10.096c4.617-5.385,8.973-10.466,17.991-10.466
	c9.051,0,13.601,5.319,18.001,10.465c3.853,4.495,7.841,9.147,14.927,9.955l12.649,1.441l-25.546,42.893l-37.246,62.517
	L97.211,471.637L97.211,471.637z"/>
<path style="fill:#FCC062;" d="M494.717,319.568v18.701c-7.166,2.169-11.69,7.156-15.196,11.248
	c-0.185,0.206-0.37,0.422-0.555,0.637c-4.39,5.12-6.724,7.577-11.751,7.577c-0.339,0-0.668-0.01-0.987-0.041
	c-4.369-0.308-6.672-2.766-10.754-7.536c-4.688-5.48-11.114-12.985-23.472-12.985c-12.348,0-18.763,7.505-23.451,12.985
	c-4.39,5.12-6.724,7.577-11.751,7.577c-5.027,0-7.361-2.457-11.741-7.577c-4.688-5.48-11.114-12.985-23.462-12.985
	c-12.348,0-18.773,7.505-23.462,12.985c-4.39,5.12-6.714,7.577-11.741,7.577c-5.038,0-7.361-2.457-11.751-7.577
	c-4.688-5.48-11.104-12.985-23.462-12.985c-12.348,0-18.763,7.505-23.451,12.985c-4.39,5.12-6.714,7.577-11.741,7.577
	s-7.361-2.457-11.741-7.577c-4.688-5.48-11.114-12.985-23.462-12.985c-12.348,0-18.773,7.505-23.462,12.985
	c-4.38,5.12-6.714,7.577-11.741,7.577s-7.361-2.457-11.751-7.577c-4.688-5.48-11.104-12.985-23.451-12.985
	c-12.358,0-18.773,7.505-23.462,12.985c-4.39,5.12-6.714,7.577-11.741,7.577s-7.361-2.457-11.741-7.577
	c-4.688-5.48-11.114-12.985-23.462-12.985c-11.176,0-17.499,6.148-22.074,11.381v-2.56c0-1.09,2.776-33.681,34.904-34.905
	c3.249-0.123,6.508,0.463,9.654,1.367l6.765,1.943l2.55-6.549c24.973-63.969,85.477-105.299,154.155-105.299h61.378
	c24.479,0,47.931,5.254,69.089,14.918c19.226,17.036,34.596,38.729,44.435,63.959l2.56,6.549l6.755-1.943
	c0.494-0.144,0.997-0.278,1.511-0.391c0.031-0.01,0.062-0.021,0.093-0.021c0.401-0.103,0.812-0.195,1.234-0.278
	c0.206-0.041,0.411-0.082,0.627-0.123c0.082-0.021,0.154-0.031,0.236-0.041c1.974-0.339,3.969-0.514,5.963-0.514
	c4.071,0,7.988,0.699,11.628,1.995c11.145,3.948,19.699,13.396,22.392,25.065C494.409,314.243,494.717,316.875,494.717,319.568z"/>
<ellipse style="fill:#FEDAAA;" cx="306.635" cy="276.799" rx="110.862" ry="57.852"/>
<g>
	<path style="fill:#CCD6DB;" d="M255.999,262.302c-5.921,0-12.543-11.014-12.543-25.754s6.622-25.754,12.543-25.754
		c2.287,0,4.602,1.514,6.695,4.38c1.755,2.385,5.849,9.258,5.849,21.374c0,12.115-4.093,18.989-5.853,21.382
		C260.601,260.787,258.286,262.302,255.999,262.302z"/>
	<path style="fill:#CCD6DB;" d="M168.175,256.6c-2.399,0-4.234-0.62-5.457-1.843c-2.81-2.809-1.713-8.183-1.11-10.363
		c1.537-5.515,5.342-11.605,10.444-16.717c5.1-5.1,11.192-8.908,16.715-10.447c1.732-0.478,3.431-0.73,4.921-0.73
		c2.342,0,4.22,0.629,5.432,1.821c2.831,2.832,1.732,8.204,1.129,10.384c-1.54,5.528-5.347,11.62-10.446,16.717
		c-4.793,4.783-10.306,8.363-15.527,10.084c-0.443,0.143-0.836,0.268-1.228,0.372C171.368,256.346,169.669,256.6,168.175,256.6z"/>
	<path style="fill:#CCD6DB;" d="M341.744,256.6c-1.497,0-3.195-0.254-4.912-0.735c-5.503-1.522-11.596-5.33-16.709-10.444
		c-5.114-5.113-8.921-11.205-10.447-16.718c-0.609-2.173-1.723-7.556,1.121-10.375c1.194-1.194,3.064-1.829,5.4-1.829
		c1.816,0,3.935,0.385,6.132,1.112c5.25,1.724,10.77,5.298,15.532,10.062c5.108,5.107,8.918,11.198,10.455,16.712
		c0.604,2.188,1.699,7.562-1.109,10.371C345.982,255.98,344.145,256.6,341.744,256.6z"/>
</g>
<path style="fill:#FFDF5A;" d="M452.329,265.634c-0.257-0.607,0.278-0.679,0.278-0.679L452.329,265.634z"/>
<path style="fill:#FFA834;" d="M494.717,319.568v18.701c-7.166,2.169-11.69,7.156-15.196,11.248
	c-0.185,0.206-0.37,0.422-0.555,0.637c-4.39,5.12-6.724,7.577-11.751,7.577c-0.339,0-0.668-0.01-0.987-0.041v-42.656
	c0-22.033-22.834-27.06-22.834-27.06l6.755-1.943c0.494-0.144,0.997-0.278,1.511-0.391c0.031-0.01,0.062-0.021,0.093-0.021
	c0.401-0.103,0.812-0.195,1.234-0.278c0.206-0.041,0.411-0.082,0.627-0.123c0.082-0.021,0.154-0.031,0.236-0.041
	c1.974-0.339,3.969-0.514,5.963-0.514c4.071,0,7.988,0.699,11.628,1.995c11.145,3.948,19.699,13.396,22.392,25.065
	C494.409,314.243,494.717,316.875,494.717,319.568z"/>
<g>
	<circle style="fill:#FFFFFF;" cx="180.352" cy="436.393" r="15.422"/>
	<circle style="fill:#FFFFFF;" cx="345.261" cy="416.911" r="5.752"/>
	<circle style="fill:#FFFFFF;" cx="241.227" cy="419.789" r="2.876"/>
	<circle style="fill:#FFFFFF;" cx="220.417" cy="452.442" r="5.752"/>
	<circle style="fill:#FFFFFF;" cx="413.353" cy="411.873" r="3.874"/>
	
		<ellipse transform="matrix(-0.6909 -0.7229 0.7229 -0.6909 392.8422 639.7755)" style="fill:#FFFFFF;" cx="333.184" cy="235.911" rx="8.056" ry="2.513"/>
	
		<ellipse transform="matrix(-0.6909 0.7229 -0.7229 -0.6909 484.063 266.1748)" style="fill:#FFFFFF;" cx="185.132" cy="236.564" rx="8.056" ry="2.513"/>
	<ellipse style="fill:#FFFFFF;" cx="260.452" cy="237.494" rx="2.056" ry="9.425"/>
</g>
<polygon style="fill:#99A0A4;" points="441.009,478.834 441.009,487.707 93.898,487.707 93.898,496.579 70.99,496.579 
	70.99,478.834 "/>
<g>
	<path style="fill:#E5E9EA;" d="M444.967,404.913l-34.853,58.5h-270.6l-17.362-29.139c-7.658-12.853-6.241-29.152,3.487-40.52
		c0.043-0.05,0.085-0.1,0.129-0.15c4.38-5.12,6.714-7.587,11.741-7.587s7.361,2.467,11.741,7.587
		c4.688,5.48,11.114,12.975,23.462,12.975s18.773-7.495,23.462-12.975c4.38-5.12,6.714-7.587,11.741-7.587s7.361,2.467,11.741,7.587
		c4.688,5.48,11.114,12.975,23.462,12.975c12.348,0,18.773-7.495,23.462-12.975c4.38-5.12,6.714-7.587,11.741-7.587
		s7.361,2.467,11.741,7.587c4.688,5.48,11.114,12.975,23.462,12.975c12.348,0,18.773-7.495,23.462-12.975
		c4.38-5.12,6.714-7.587,11.741-7.587c5.027,0,7.351,2.467,11.741,7.587c4.688,5.48,11.114,12.975,23.462,12.975
		c12.348,0,18.773-7.495,23.462-12.975c4.38-5.12,6.714-7.587,11.741-7.587s7.361,2.467,11.751,7.587
		C434.214,397.49,438.408,402.393,444.967,404.913z"/>
	<path style="fill:#E5E9EA;" d="M265.458,236.548c0,9.068-2.539,15.864-5.254,19.555c-2.714-3.691-5.264-10.487-5.264-19.555
		c0-9.068,2.55-15.864,5.264-19.555C262.92,220.685,265.458,227.481,265.458,236.548z"/>
	<path style="fill:#E5E9EA;" d="M197.275,227.882c-1.398,5.017-4.914,10.62-9.654,15.36c-4.421,4.411-9.572,7.773-14.311,9.335
		c-1.121-1.121-1.254-4.01-0.319-7.361c1.388-5.017,4.914-10.61,9.654-15.36c4.411-4.411,9.572-7.762,14.311-9.335
		C198.076,221.64,198.199,224.54,197.275,227.882z"/>
	<path style="fill:#E5E9EA;" d="M345.025,252.576c-4.729-1.563-9.901-4.925-14.311-9.335c-4.75-4.74-8.266-10.343-9.654-15.36
		c-0.925-3.321-0.812-6.21,0.298-7.341c4.164,1.367,9.304,4.298,14.322,9.315c4.75,4.75,8.266,10.343,9.664,15.36
		C346.268,248.567,346.145,251.455,345.025,252.576z"/>
</g>
<path d="M459.815,269.244c-2.379,0-4.752,0.17-7.104,0.506c-13.372-30.928-34.999-57.367-62.86-76.752
	c-30.364-21.129-66.037-32.296-103.161-32.296H225.31c-37.124,0-72.797,11.167-103.161,32.296
	c-27.86,19.385-49.487,45.824-62.859,76.752c-2.352-0.336-4.727-0.506-7.105-0.506c-27.749,0-50.324,22.575-50.324,50.324v33.027
	h7.711c5.027,0,7.358,2.462,11.743,7.584c1.092,1.275,2.283,2.66,3.616,4.034l-0.065,0.038l59.07,99.161H55.573V512h400.855v-48.588
	h-28.365l59.07-99.161l-0.067-0.04c1.331-1.374,2.523-2.757,3.614-4.032c4.386-5.123,6.718-7.585,11.748-7.585h7.711v-33.027
	C510.139,291.819,487.564,269.244,459.815,269.244z M441.006,478.834v17.744H70.994v-17.744h22.129h325.752H441.006z
	 M410.113,463.412H101.888l-53.886-90.456c10.266-1.175,15.971-7.802,20.23-12.777c4.385-5.122,6.715-7.584,11.742-7.584
	c5.027,0,7.358,2.462,11.743,7.585c4.688,5.477,11.109,12.977,23.458,12.977s18.77-7.501,23.458-12.977
	c4.385-5.123,6.716-7.585,11.743-7.585s7.359,2.462,11.744,7.585c4.689,5.477,11.11,12.977,23.46,12.977
	c12.351,0,18.771-7.5,23.46-12.977c4.386-5.123,6.717-7.585,11.745-7.585c5.026,0,7.357,2.462,11.741,7.584
	c4.688,5.477,11.108,12.978,23.457,12.978c12.351,0,18.77-7.501,23.459-12.978c4.384-5.122,6.714-7.584,11.741-7.584
	c5.03,0,7.359,2.462,11.745,7.585c4.688,5.477,11.11,12.977,23.46,12.977s18.772-7.5,23.46-12.977
	c4.386-5.123,6.716-7.585,11.745-7.585s7.36,2.462,11.746,7.585c4.689,5.477,11.11,12.977,23.46,12.977
	c12.352,0,18.772-7.501,23.461-12.977c4.386-5.123,6.717-7.585,11.745-7.585c5.031,0,7.362,2.462,11.748,7.585
	c4.261,4.977,9.969,11.605,20.242,12.777L410.113,463.412z M494.717,338.271c-7.535,2.282-12.153,7.677-15.752,11.879
	c-4.386,5.123-6.718,7.585-11.748,7.585s-7.361-2.462-11.747-7.584c-4.689-5.477-11.111-12.978-23.463-12.978
	c-12.351,0-18.771,7.5-23.46,12.978c-4.386,5.122-6.717,7.584-11.746,7.584c-5.029,0-7.359-2.462-11.745-7.584
	c-4.688-5.477-11.11-12.978-23.461-12.978s-18.772,7.5-23.46,12.978c-4.386,5.122-6.717,7.584-11.745,7.584
	c-5.03,0-7.359-2.462-11.745-7.584c-4.688-5.477-11.11-12.978-23.46-12.978s-18.769,7.501-23.457,12.978
	c-4.384,5.122-6.715,7.584-11.742,7.584s-7.357-2.462-11.742-7.584c-4.687-5.477-11.108-12.978-23.457-12.978
	c-12.351,0-18.771,7.501-23.461,12.978c-4.385,5.122-6.716,7.584-11.744,7.584c-5.029,0-7.359-2.462-11.744-7.584
	c-4.689-5.477-11.11-12.978-23.46-12.978s-18.771,7.501-23.46,12.978c-4.385,5.122-6.716,7.584-11.743,7.584
	s-7.358-2.462-11.742-7.584c-4.688-5.477-11.109-12.978-23.458-12.978s-18.77,7.501-23.457,12.978
	c-4.385,5.122-6.715,7.584-11.742,7.584c-5.029,0-7.359-2.462-11.743-7.584c-3.597-4.202-8.215-9.596-15.748-11.879v-18.703
	c0-1.091,2.782-33.678,34.902-34.902c3.258-0.124,6.511,0.46,9.662,1.366l6.758,1.943l2.557-6.551
	c24.966-63.967,85.472-105.301,154.148-105.301h61.379c68.677,0,129.184,41.333,154.149,105.301l2.556,6.55l6.757-1.943
	c3.152-0.907,6.404-1.366,9.662-1.366c19.245,0,34.902,15.657,34.902,34.902v18.703H494.717z"/>
<path d="M251.554,73.962c-5.716,4.034-13.545,9.559-13.545,20.811s7.829,16.777,13.546,20.812c5.436,3.836,7.016,5.379,7.016,8.211
	h15.422c0-11.252-7.829-16.777-13.546-20.811c-5.436-3.836-7.016-5.379-7.016-8.212c0-2.831,1.58-4.375,7.016-8.211
	c5.717-4.034,13.546-9.559,13.546-20.812c0-11.251-7.829-16.776-13.546-20.81c-5.436-3.836-7.016-5.378-7.016-8.209
	s1.58-4.374,7.016-8.209c5.716-4.034,13.546-9.559,13.546-20.81h-15.422c0,2.831-1.58,4.374-7.016,8.209
	c-5.717,4.034-13.546,9.558-13.546,20.81c0,11.251,7.829,16.776,13.546,20.81c5.436,3.836,7.016,5.378,7.016,8.209
	C258.57,68.581,256.99,70.125,251.554,73.962z"/>
<path d="M333.868,94.524c-5.717,4.034-13.546,9.559-13.546,20.812c0,11.252,7.829,16.777,13.546,20.811
	c5.436,3.836,7.016,5.379,7.016,8.212h15.422c0-11.252-7.829-16.777-13.546-20.812c-5.436-3.836-7.016-5.379-7.016-8.211
	c0-2.832,1.58-4.376,7.016-8.212c5.717-4.034,13.546-9.559,13.546-20.811c0-11.251-7.829-16.776-13.546-20.81
	c-5.436-3.836-7.016-5.378-7.016-8.209c0-2.83,1.58-4.374,7.016-8.209c5.717-4.034,13.546-9.558,13.546-20.81h-15.422
	c0,2.831-1.58,4.374-7.016,8.209c-5.717,4.034-13.546,9.558-13.546,20.81c0,11.251,7.829,16.776,13.546,20.81
	c5.436,3.836,7.016,5.378,7.016,8.209C340.884,89.145,339.303,90.689,333.868,94.524z"/>
<path d="M171.833,93.497c-5.716,4.034-13.545,9.559-13.545,20.811s7.829,16.777,13.545,20.811c5.437,3.836,7.017,5.379,7.017,8.212
	h15.422c0-11.252-7.829-16.777-13.546-20.812c-5.436-3.836-7.016-5.379-7.016-8.211c0-2.832,1.58-4.376,7.017-8.212
	c5.716-4.034,13.545-9.56,13.545-20.812c0-11.251-7.829-16.776-13.546-20.809c-5.436-3.836-7.016-5.378-7.016-8.209
	c0-2.831,1.58-4.374,7.016-8.209c5.717-4.034,13.546-9.558,13.546-20.81H178.85c0,2.83-1.58,4.374-7.016,8.209
	c-5.717,4.034-13.546,9.559-13.546,20.81s7.829,16.776,13.546,20.81c5.436,3.835,7.016,5.378,7.016,8.208
	C178.85,88.117,177.27,89.661,171.833,93.497z"/>
<rect x="410.824" y="147.061" width="16.041" height="15.422"/>
<rect x="440.897" y="66.638" width="16.04" height="15.422"/>
<rect x="390.55" y="24.675" width="16.04" height="15.422"/>
<rect x="110.831" y="66.638" width="16.04" height="15.422"/>
<rect x="68.174" y="140.07" width="16.04" height="15.422"/>
<rect x="98.987" width="16.04" height="15.422"/>
<g>
	<rect x="256.114" y="432.569" style="fill:#FFFFFF;" width="114.851" height="15.422"/>
	<rect x="386.365" y="432.569" style="fill:#FFFFFF;" width="15.514" height="15.422"/>
</g>
<path d="M255.999,198.461c-14.187,0-24.884,16.375-24.884,38.09s10.698,38.09,24.884,38.09c14.187,0,24.884-16.375,24.884-38.09
	S270.186,198.461,255.999,198.461z M255.999,259.217c-3.336,0-9.463-8.606-9.463-22.668s6.127-22.668,9.463-22.668
	c3.336,0,9.463,8.606,9.463,22.668C265.463,250.612,259.337,259.217,255.999,259.217z"/>
<path d="M185.466,205.344c-7.611,2.114-15.472,6.947-22.135,13.61c-6.662,6.662-11.496,14.524-13.61,22.135
	c-2.503,9.013-0.946,17.176,4.272,22.394c3.585,3.585,8.558,5.442,14.243,5.442c2.591,0,5.33-0.386,8.151-1.169
	c7.611-2.114,15.472-6.947,22.135-13.61c6.663-6.662,11.496-14.524,13.61-22.135c2.503-9.013,0.946-17.176-4.273-22.394
	C202.642,204.398,194.48,202.843,185.466,205.344z M197.273,227.885c-1.393,5.016-4.912,10.614-9.655,15.357
	c-4.743,4.743-10.341,8.262-15.357,9.655c-3.349,0.93-6.239,0.805-7.362-0.318c-1.123-1.124-1.248-4.014-0.318-7.363
	c1.393-5.016,4.912-10.614,9.655-15.357c4.743-4.743,10.341-8.262,15.357-9.655c1.495-0.414,2.897-0.62,4.093-0.62
	c1.484,0,2.647,0.316,3.269,0.938C198.079,221.645,198.203,224.535,197.273,227.885z"/>
<path d="M346.59,218.954c-15.354-15.354-34.496-19.369-44.531-9.337c-5.218,5.219-6.775,13.381-4.272,22.394
	c2.114,7.611,6.947,15.472,13.609,22.135c6.664,6.662,14.524,11.496,22.135,13.61c2.822,0.783,5.559,1.169,8.151,1.169
	c5.684,0,10.659-1.858,14.243-5.442c5.218-5.219,6.775-13.381,4.272-22.394C358.085,233.478,353.252,225.617,346.59,218.954z
	 M345.021,252.579c-1.123,1.123-4.015,1.247-7.362,0.318c-5.016-1.393-10.613-4.912-15.356-9.655
	c-4.743-4.743-8.263-10.341-9.656-15.357c-0.929-3.35-0.805-6.24,0.318-7.362c0.601-0.601,1.725-0.936,3.23-0.936
	c4.405,0,12.08,2.862,19.49,10.272c4.743,4.743,8.263,10.341,9.656,15.357C346.269,248.565,346.145,251.455,345.021,252.579z"/>
<g>
</g>
<g>
</g>
<g>
</g>
<g>
</g>
<g>
</g>
<g>
</g>
<g>
</g>
<g>
</g>
<g>
</g>
<g>
</g>
<g>
</g>
<g>
</g>
<g>
</g>
<g>
</g>
<g>
</g>
</svg>
