<?xml version="1.0" encoding="iso-8859-1"?>
<!-- Generator: Adobe Illustrator 19.0.0, SVG Export Plug-In . SVG Version: 6.00 Build 0)  -->
<svg version="1.1" id="Layer_1" xmlns="http://www.w3.org/2000/svg" xmlns:xlink="http://www.w3.org/1999/xlink" x="0px" y="0px"
	 viewBox="0 0 512 512" style="enable-background:new 0 0 512 512;" xml:space="preserve">
<path style="fill:#F7AFD4;" d="M396.511,316.172c-8.973,0-16.272-7.3-16.272-16.272v-45.485
	c-7.545-4.253-12.762-11.142-18.282-18.433c-8.613-11.396-16.741-22.15-33.364-22.15c-16.601,0-24.715,10.728-33.305,22.087
	c-5.41,7.158-10.524,13.923-17.854,18.233v27.132c0,8.978-7.3,16.283-16.272,16.283c-8.978,0-16.283-7.305-16.283-16.283v-27.123
	c-7.372-4.34-12.702-11.404-17.859-18.237c-8.592-11.36-16.709-22.092-33.321-22.092c-16.601,0-24.715,10.728-33.306,22.087
	c-10.272,13.604-18.2,22.523-34.136,22.523c-15.927,0-23.85-8.916-34.12-22.517c-6.426-8.499-12.497-16.53-22.004-20.136
	c-1.533-0.582-3.11-1.029-4.689-1.329l-0.386-0.073l-0.113-0.033c-0.664-0.117-6.576-1.145-6.576-1.145l-0.05-6.803
	c0.108-28.199,23.09-51.094,51.23-51.094h303.216c28.147,0,51.133,22.895,51.241,51.037l0.026,6.827l-6.723,1.19
	c-0.486,0.086-0.968,0.188-1.436,0.297c-1.25,0.292-2.485,0.668-3.671,1.12c-9.53,3.615-15.601,11.644-22.029,20.144
	c-5.292,7.002-10.291,13.616-17.379,17.939V299.9C412.794,308.872,405.489,316.172,396.511,316.172z"/>
<rect x="7.097" y="386.99" style="fill:#ABB2B7;" width="497.806" height="39.997"/>
<path style="fill:#8C6D4B;" d="M58.307,388.004V210.952l10.557,3.34c9.991,3.16,16.282,10.71,24.079,21.032
	c8.59,11.367,16.705,22.105,33.312,22.105c16.618,0,24.732-10.738,33.324-22.105c10.264-13.593,18.185-22.505,34.118-22.505
	c15.944,0,23.865,8.912,34.132,22.507c4.434,5.858,9.02,11.919,14.742,16.106l3.32,2.429v27.424c0,8.419,6.85,15.269,15.269,15.269
	c8.414,0,15.259-6.85,15.259-15.269V253.85l3.321-2.43c5.734-4.197,10.304-10.246,14.722-16.096
	c10.279-13.596,18.205-22.506,34.13-22.506c15.935,0,23.862,8.91,34.139,22.504c4.524,5.98,9.198,12.161,15.113,16.37l3.409,2.425
	V299.9c0,8.414,6.845,15.259,15.259,15.259c8.42,0,15.27-6.845,15.27-15.259v-46.338l3.237-2.433
	c5.531-4.161,9.994-10.054,14.311-15.755c7.819-10.348,14.128-17.921,24.118-21.082l10.557-3.34v177.053H58.307z"/>
<g>
	<circle style="fill:#FF1D25;" cx="220.768" cy="131.751" r="18.63"/>
	<circle style="fill:#FF1D25;" cx="291.82" cy="131.173" r="18.63"/>
</g>
<path style="fill:#A81124;" d="M286.086,120.669c0,16.588-13.499,30.086-30.086,30.086c-16.422,0-29.81-13.233-30.075-29.588
	c-0.011-0.166-0.011-0.333-0.011-0.499c0-16.588,13.499-30.086,30.086-30.086c7.586,0,14.528,2.824,19.821,7.474
	C282.111,103.573,286.086,111.667,286.086,120.669z"/>
<path style="fill:#FF1D25;" d="M274.158,100.422c0,15.188-12.359,27.547-27.547,27.547c-6.945,0-13.302-2.585-18.148-6.844
	c-0.01-0.152-0.01-0.304-0.01-0.456c0-15.188,12.359-27.547,27.547-27.547c6.945,0,13.302,2.585,18.148,6.844
	C274.158,100.118,274.158,100.27,274.158,100.422z"/>
<path style="fill:#F58FBF;" d="M454.027,206.766c-1.653,0.385-3.224,0.872-4.714,1.44c-11.68,4.431-18.979,14.062-25.61,22.832
	c-4.867,6.438-9.459,12.511-15.319,16.019l-3.701,2.21V299.9c0,4.502-3.66,8.162-8.172,8.162c-4.502,0-8.162-3.66-8.162-8.162
	v-50.257l-3.924-2.18c-6.205-3.427-10.98-9.743-16.039-16.425c-8.973-11.872-19.142-25.316-39.794-25.316
	c-20.642,0-30.811,13.454-39.784,25.316c-4.958,6.56-9.642,12.754-15.674,16.232l-3.812,2.19v31.825c0,4.502-3.66,8.172-8.162,8.172
	c-4.512,0-8.172-3.67-8.172-8.172V249.47l-3.812-2.19c-6.032-3.478-10.727-9.672-15.684-16.242
	c-8.973-11.862-19.142-25.316-39.794-25.316c-20.642,0-30.811,13.454-39.784,25.316c-9.034,11.964-15.208,19.294-27.658,19.294
	c-12.44,0-18.615-7.33-27.648-19.294c-6.631-8.77-13.92-18.402-25.6-22.832c-1.896-0.72-3.914-1.308-6.053-1.713
	c2.16-7.918,7.807-16.06,12.511-20.652c8.01-7.797,18.898-12.247,30.081-12.247c0.182,0,303.216,0,303.216,0
	c13.332,0,26.117,6.347,34.228,16.921C450.996,195.725,452.861,201.17,454.027,206.766z"/>
<path style="fill:#EF72AC;" d="M449.313,208.206c-11.68,4.431-18.979,14.062-25.61,22.832c-4.867,6.438-9.459,12.511-15.319,16.019
	l-3.701,2.21V299.9c0,4.502-3.66,8.162-8.172,8.162c-4.502,0-8.162-3.66-8.162-8.162v-50.257l-3.924-2.18
	c-6.205-3.427-10.98-9.743-16.039-16.425c-8.973-11.872-19.142-25.316-39.794-25.316c-20.642,0-30.811,13.454-39.784,25.316
	c-4.958,6.56-9.642,12.754-15.674,16.232l-3.812,2.19v31.825c0,4.502-3.66,8.172-8.162,8.172c-4.512,0-8.172-3.67-8.172-8.172
	V249.47l-3.812-2.19c-6.032-3.478-10.727-9.672-15.684-16.242c-8.973-11.862-19.142-25.316-39.794-25.316
	c-20.642,0-30.811,13.454-39.784,25.316c-9.034,11.964-15.208,19.294-27.658,19.294c-12.44,0-18.615-7.33-27.648-19.294
	c-6.631-8.77-13.92-18.402-25.6-22.832c7.624-12.156,21.149-20.257,36.54-20.257h303.216c12.268,0,24.13,5.363,32.261,14.539
	C446.606,204.272,448.046,206.188,449.313,208.206z"/>
<path style="fill:#A58763;" d="M455.893,256.719v123.174H66.418V256.729c7.786,2.454,13.069,8.932,20.054,18.179
	c8.973,11.872,19.142,25.326,39.784,25.326c20.652,0,30.821-13.454,39.794-25.326c9.034-11.953,15.208-19.284,27.648-19.284
	c12.45,0,18.625,7.33,27.658,19.284c4.796,6.347,9.733,12.866,16.425,17.763v23.309c0,12.896,10.483,23.38,23.38,23.38
	c12.886,0,23.37-10.483,23.37-23.38v-23.319c6.691-4.897,11.619-11.416,16.404-17.753c9.044-11.953,15.218-19.284,27.658-19.284
	c12.45,0,18.625,7.33,27.668,19.284c4.907,6.489,9.956,13.17,16.881,18.097v41.589c0,12.886,10.483,23.38,23.369,23.38
	c12.896,0,23.38-10.493,23.38-23.38v-42.278c6.458-4.856,11.264-11.223,15.948-17.408
	C442.824,265.662,448.106,259.183,455.893,256.719z"/>
<path d="M471.101,355.75V206.553v-0.834h-0.021c-0.45-31.782-26.428-57.501-58.315-57.501h-94.324
	c3.058-4.916,4.83-10.71,4.83-16.913c0-17.102-13.434-31.12-30.302-32.067c-7.412-12.733-21.202-21.317-36.967-21.317
	s-29.555,8.584-36.967,21.317c-16.869,0.946-30.303,14.966-30.303,32.067c0,6.203,1.772,11.997,4.83,16.913H109.55
	c-31.887,0-57.865,25.72-58.315,57.501h-0.021v0.834v149.198v24.142H0v54.187h512v-54.187h-40.899V355.75z M298.754,120.671
	c0-1.546-0.087-3.071-0.248-4.575c5.646,2.744,9.557,8.519,9.557,15.207c0,9.327-7.587,16.913-16.913,16.913
	c-0.793,0-1.567-0.074-2.332-0.18C295.015,140.616,298.754,131.074,298.754,120.671z M256,93.127
	c15.189,0,27.546,12.357,27.546,27.546S271.189,148.217,256,148.217c-15.189,0-27.546-12.357-27.546-27.545
	C228.454,105.483,240.811,93.127,256,93.127z M213.495,116.097c-0.161,1.504-0.248,3.029-0.248,4.576
	c0,10.402,3.738,19.945,9.936,27.365c-0.764,0.106-1.539,0.18-2.332,0.18c-9.327,0-16.914-7.587-16.914-16.913
	C203.937,124.616,207.849,118.839,213.495,116.097z M109.549,163.425h303.216c23.725,0,43.033,19.256,43.125,42.96
	c-15.685,2.844-24.389,14.343-32.186,24.654c-4.866,6.435-9.461,12.512-15.319,16.019l-3.698,2.214v50.623
	c0,4.505-3.664,8.169-8.17,8.169c-4.505,0-8.17-3.664-8.17-8.169v-50.257l-3.924-2.171c-6.204-3.432-10.978-9.745-16.033-16.43
	c-8.975-11.868-19.147-25.32-39.793-25.32c-20.645,0-30.816,13.453-39.79,25.322c-4.96,6.56-9.644,12.755-15.671,16.228
	l-3.809,2.194v31.822c0,4.505-3.664,8.169-8.17,8.169c-4.505,0-8.169-3.664-8.169-8.169v-31.816l-3.812-2.193
	c-6.033-3.47-10.721-9.671-15.682-16.234c-8.974-11.869-19.144-25.323-39.79-25.323c-20.644,0-30.814,13.454-39.787,25.324
	c-9.039,11.957-15.21,19.286-27.655,19.286s-18.617-7.329-27.656-19.286c-7.795-10.311-16.497-21.812-32.18-24.656
	C66.515,182.682,85.823,163.425,109.549,163.425z M66.42,340.542V222.025c7.788,2.463,13.063,8.941,20.053,18.188
	c8.973,11.87,19.143,25.323,39.788,25.323s30.814-13.454,39.787-25.324c9.04-11.957,15.211-19.286,27.655-19.286
	c12.446,0,18.619,7.329,27.658,19.286c4.795,6.342,9.727,12.866,16.418,17.761v23.312c0,12.89,10.486,23.377,23.377,23.377
	s23.378-10.486,23.378-23.377v-23.323c6.684-4.894,11.613-11.412,16.403-17.749c9.041-11.957,15.213-19.286,27.659-19.286
	c12.447,0,18.622,7.328,27.663,19.285c4.907,6.489,9.956,13.166,16.879,18.09v41.593c0,12.89,10.487,23.377,23.378,23.377
	c12.89,0,23.378-10.486,23.378-23.377v-42.282c6.453-4.855,11.263-11.217,15.941-17.402c6.993-9.246,12.27-15.726,20.059-18.188
	v118.518v39.352H66.42V340.542z M496.792,395.101v23.771H15.208v-23.771h36.004h419.889H496.792z"/>
<g>
	<polygon style="fill:#C6A98D;" points="416.107,357.081 416.107,364.685 430.615,364.685 430.615,349.478 416.107,349.478 	"/>
	<polygon style="fill:#C6A98D;" points="285.135,357.081 285.135,364.685 400.851,364.685 400.851,349.478 285.135,349.478 	"/>
</g>
<polygon style="fill:#99A0A4;" points="496.792,395.101 496.792,406.984 32.616,406.984 32.616,418.876 15.208,418.876 
	15.208,395.101 "/>
<g>
	<circle style="fill:#C6A98D;" cx="191.285" cy="326.057" r="31.899"/>
	<circle style="fill:#C6A98D;" cx="97.442" cy="333.935" r="13.683"/>
	<circle style="fill:#C6A98D;" cx="333.439" cy="310.555" r="22.028"/>
	<circle style="fill:#C6A98D;" cx="444.122" cy="323.634" r="8.954"/>
</g>
<g>
	<circle style="fill:#FC4F5C;" cx="258.94" cy="106.141" r="9.038"/>
	<circle style="fill:#FC4F5C;" cx="241.046" cy="115.488" r="4.939"/>
</g>
<g>
	<path style="fill:#A81124;" d="M306.298,138.817c-2.768,5.566-8.516,9.398-15.147,9.398c-0.791,0-1.571-0.071-2.332-0.182
		c5.546-6.641,9.125-14.985,9.804-24.12C300.823,127.635,304.229,133.708,306.298,138.817z"/>
	<path style="fill:#A81124;" d="M223.181,148.033c-0.76,0.112-1.541,0.182-2.332,0.182c-5.444,0-10.291-2.585-13.383-6.59
		c0.669-8.973,3.427-14.042,5.972-16.85C214.28,133.576,217.808,141.595,223.181,148.033z"/>
</g>
<g>
	<circle style="fill:#E5197C;" cx="384.811" cy="209.119" r="4.292"/>
	<circle style="fill:#E5197C;" cx="267.396" cy="217.777" r="4.365"/>
	<circle style="fill:#E5197C;" cx="294.517" cy="194.701" r="2.699"/>
	<circle style="fill:#E5197C;" cx="215.8" cy="178.946" r="2.242"/>
	<circle style="fill:#E5197C;" cx="156.419" cy="199.872" r="5.173"/>
	<circle style="fill:#E5197C;" cx="114.516" cy="217.169" r="3.761"/>
	<circle style="fill:#E5197C;" cx="109.294" cy="182.657" r="3.712"/>
	<circle style="fill:#E5197C;" cx="146.402" cy="169.395" r="2.137"/>
	<circle style="fill:#E5197C;" cx="249.856" cy="168.706" r="1.449"/>
	<circle style="fill:#E5197C;" cx="349.397" cy="195.827" r="2.699"/>
	<circle style="fill:#E5197C;" cx="374.196" cy="180.588" r="2.306"/>
	<circle style="fill:#E5197C;" cx="391.513" cy="169.669" r="2.417"/>
	<circle style="fill:#E5197C;" cx="420.266" cy="204.607" r="4.511"/>
	<circle style="fill:#E5197C;" cx="313.07" cy="181.318" r="2.137"/>
	<circle style="fill:#E5197C;" cx="333.287" cy="168.463" r="1.209"/>
	<circle style="fill:#E5197C;" cx="286.832" cy="169.243" r="1.986"/>
	<circle style="fill:#E5197C;" cx="234.05" cy="204.181" r="2.059"/>
	<circle style="fill:#E5197C;" cx="183.965" cy="195.259" r="0.563"/>
	<circle style="fill:#E5197C;" cx="182.617" cy="170.065" r="2.811"/>
	<circle style="fill:#E5197C;" cx="163.901" cy="180.132" r="1.184"/>
</g>
<g>
</g>
<g>
</g>
<g>
</g>
<g>
</g>
<g>
</g>
<g>
</g>
<g>
</g>
<g>
</g>
<g>
</g>
<g>
</g>
<g>
</g>
<g>
</g>
<g>
</g>
<g>
</g>
<g>
</g>
</svg>
