<?xml version="1.0" encoding="iso-8859-1"?>
<!-- Generator: Adobe Illustrator 19.0.0, SVG Export Plug-In . SVG Version: 6.00 Build 0)  -->
<svg version="1.1" id="Layer_1" xmlns="http://www.w3.org/2000/svg" xmlns:xlink="http://www.w3.org/1999/xlink" x="0px" y="0px"
	 viewBox="0 0 512 512" style="enable-background:new 0 0 512 512;" xml:space="preserve">
<path style="fill:#A58763;" d="M477.391,170.649c-6.908-6.343-11.14-14.797-13.324-23.765c-5.451,1.904-11.175,2.947-16.781,2.947
	c-13.978,0-26.385-5.845-36.479-15.11c-10.129-9.299-14.512-23.136-15.11-36.479c-0.227-5.061,0.694-10.403,2.424-15.571
	c-1.172,0.119-2.347,0.2-3.528,0.2c-21.729,0-37.819-17.76-38.76-38.759c-0.159-3.544,0.279-6.997,1.192-10.292
	c-4.963-0.487-9.989-0.755-15.072-0.78h-0.81c-75.084,0-138.366,51.524-156.351,121.085c-0.01,0.021-0.01,0.053-0.021,0.084
	c-3.323,12.884-5.091,26.388-5.091,40.302c0,0.473,0,0.936,0.01,1.409c0.411,47.938,21.813,90.965,55.468,120.298
	c8.551,7.457,17.89,14.03,27.881,19.562c23.159,12.863,49.789,20.193,78.102,20.193c89.029,0,161.462-72.433,161.462-161.462
	c0-3.41-0.12-6.792-0.329-10.15C492.984,182.118,484.595,177.263,477.391,170.649z"/>
<path style="fill:#8C6D4B;" d="M170.856,479.384c-26.841,0-53.387-6.864-76.767-19.849c-9.732-5.388-18.952-11.857-27.4-19.225
	c-34.256-29.855-54.126-72.949-54.513-118.23c-0.01-0.439-0.01-0.906-0.01-1.385c0-13.385,1.676-26.683,4.983-39.529l0.057-0.315
	l0.055-0.117c18.207-69.926,81.328-118.738,153.595-118.738h0.781c16.892,0.081,33.506,2.819,49.397,8.136
	c64.903,21.673,108.512,82.181,108.512,150.563C329.546,408.196,258.357,479.384,170.856,479.384z"/>
<path style="fill:#A58763;" d="M258.059,278.938c0,94.04-71.714,171.634-163.322,180.979c-9.832-5.444-19.023-11.913-27.438-19.251
	c-33.12-28.866-54.182-71.208-54.585-118.383c0.103-14.117,1.832-27.862,4.999-41.048c0.01-0.031,0.01-0.062,0.02-0.083
	c17.698-68.455,79.974-119.159,153.863-119.159h0.797c17.264,0.083,33.886,2.939,49.442,8.145
	C244.573,200.496,258.059,238.18,258.059,278.938z"/>
<g>
	
		<ellipse transform="matrix(0.2615 -0.9652 0.9652 0.2615 -189.3902 363.1374)" style="fill:#C6A98D;" cx="142.611" cy="305.333" rx="115.357" ry="71.163"/>
	<path style="fill:#C6A98D;" d="M311.401,117.407c25.413,23.596,65.828,65.944,88.152,114.413
		c6.647,14.43,26.261,16.576,35.834,3.896l5.811-7.697c5.508-7.296,5.67-17.317,0.386-24.777
		c-19.224-27.144-66.293-90.785-103.548-118.202c-6.38-4.696-14.9-5.288-21.941-1.66l0,0
		C303.175,90.042,300.748,107.515,311.401,117.407z"/>
</g>
<g>
	<path style="fill:#8C6D4B;" d="M398.985,335.811c-6.063,2.443-12.318,4.512-18.736,6.174c-12.501,3.254-25.6,4.978-39.105,4.978
		c-0.487,0-0.963-0.02-1.45-0.02c1.328-8.557,2.018-17.327,2.018-26.249c0-87.466-66.063-159.785-150.913-169.69
		c3.974-14.813,10.088-28.763,17.996-41.497c37.087,7.117,99.146,25.113,132.349,68.547
		C384.872,235.246,397.91,291.262,398.985,335.811z"/>
	<path style="fill:#8C6D4B;" d="M180.878,216.998c4.276,0,7.755-3.479,7.755-7.755c0-4.276-3.479-7.755-7.755-7.755
		s-7.755,3.48-7.755,7.755S176.601,216.998,180.878,216.998z"/>
	<path style="fill:#8C6D4B;" d="M65.867,297.575c-4.276,0-7.755,3.479-7.755,7.755s3.48,7.755,7.755,7.755
		c4.276,0,7.755-3.48,7.755-7.755C73.622,301.053,70.143,297.575,65.867,297.575z"/>
	<path style="fill:#8C6D4B;" d="M262.993,316.284c0,7.308,5.945,13.253,13.253,13.253c7.308,0,13.254-5.945,13.254-13.253
		c0-7.308-5.945-13.254-13.254-13.254C268.938,303.03,262.993,308.976,262.993,316.284z"/>
	<path style="fill:#8C6D4B;" d="M328.254,99.998c0-4.276-3.48-7.755-7.755-7.755c-4.275,0-7.755,3.479-7.755,7.755
		c0,4.276,3.479,7.755,7.755,7.755S328.254,104.274,328.254,99.998z"/>
	<path style="fill:#8C6D4B;" d="M217.821,390.476c-4.276,0-7.755,3.48-7.755,7.755s3.48,7.755,7.755,7.755
		c4.276,0,7.755-3.479,7.755-7.755S222.096,390.476,217.821,390.476z"/>
	<path style="fill:#8C6D4B;" d="M170.857,291.925c-4.276,0-7.755,3.48-7.755,7.755s3.48,7.755,7.755,7.755
		c4.276,0,7.755-3.479,7.755-7.755S175.133,291.925,170.857,291.925z"/>
	<path style="fill:#8C6D4B;" d="M129.355,412.325c-7.308,0-13.253,5.945-13.253,13.254c0,7.308,5.945,13.253,13.253,13.253
		c7.309,0,13.254-5.945,13.254-13.253C142.609,418.27,136.662,412.325,129.355,412.325z"/>
	<path style="fill:#8C6D4B;" d="M388.107,261.097c-4.276,0-7.755,3.479-7.755,7.755s3.479,7.755,7.755,7.755
		c4.276,0,7.755-3.48,7.755-7.755C395.862,264.576,392.384,261.097,388.107,261.097z"/>
	<path style="fill:#8C6D4B;" d="M341.143,162.546c-4.276,0-7.755,3.48-7.755,7.755c0,4.276,3.479,7.755,7.755,7.755
		c4.276,0,7.755-3.479,7.755-7.755C348.898,166.025,345.42,162.546,341.143,162.546z"/>
	<path style="fill:#8C6D4B;" d="M425.675,194.509c-7.308,0-13.253,5.945-13.253,13.254c0,7.308,5.945,13.254,13.253,13.254
		c7.308,0,13.254-5.945,13.254-13.254C438.929,200.454,432.984,194.509,425.675,194.509z"/>
</g>
<path d="M511.818,180.934l-6.81-0.589c-17.284-1.493-31.415-14.474-34.362-31.567l-1.431-8.294l-8.108,2.262
	c-4.242,1.184-8.609,1.784-12.981,1.784c-26.57,0-48.186-21.617-48.186-48.186c0-3.192,0.318-6.398,0.946-9.529l1.462-7.295
	l-7.261-1.621c-17.325-3.867-29.899-19.573-29.899-37.345c0-3.256,0.41-6.49,1.217-9.613l2.2-8.509l-8.737-0.953
	c-6.241-0.68-12.541-1.025-18.726-1.025c-79.931,0-147.209,55.176-165.769,129.439c-1.502-0.04-3.006-0.06-4.517-0.06
	C76.646,149.832,0,226.478,0,320.689c0,94.21,76.646,170.857,170.857,170.857c79.932,0,147.209-55.176,165.769-129.439
	c1.501,0.04,3.006,0.06,4.517,0.06C435.354,362.167,512,285.521,512,191.31c0-1.184-0.02-2.363-0.044-3.542L511.818,180.934z
	 M170.857,476.338c-85.825,0-155.649-69.824-155.649-155.649S85.032,165.04,170.857,165.04s155.649,69.824,155.649,155.649
	S256.682,476.338,170.857,476.338z M341.143,346.959c-0.484,0-0.963-0.014-1.446-0.018c1.325-8.56,2.017-17.326,2.017-26.252
	c0-87.466-66.067-159.778-150.916-169.687c17.804-66.347,78.457-115.341,150.345-115.341c2.99,0,6.01,0.088,9.038,0.265
	c-0.133,1.537-0.199,3.082-0.199,4.629c0,22.446,14.359,42.534,35.001,50.181c-0.165,1.867-0.248,3.739-0.248,5.609
	c0,34.956,28.438,63.394,63.394,63.394c3.16,0,6.317-0.238,9.445-0.71c5.883,17.834,20.808,31.347,39.189,35.407
	C495.094,278.828,425.926,346.959,341.143,346.959z"/>
<path d="M343.462,99.998c0-12.662-10.302-22.963-22.963-22.963s-22.963,10.301-22.963,22.963s10.301,22.963,22.963,22.963
	C333.161,122.961,343.462,112.66,343.462,99.998z M312.744,99.998c0-4.276,3.479-7.755,7.755-7.755s7.755,3.479,7.755,7.755
	c0,4.276-3.48,7.755-7.755,7.755C316.223,107.753,312.744,104.274,312.744,99.998z"/>
<g>
	<path style="fill:#C6A98D;" d="M222.373,119.288l12.957,7.961c2.068-3.365,4.319-6.673,6.69-9.831l-12.161-9.132
		C227.206,111.82,224.687,115.523,222.373,119.288z"/>
	<path style="fill:#C6A98D;" d="M238.904,97.404l11.202,10.286c13.095-14.261,29.495-25.514,47.429-32.541l-5.548-14.16
		C271.911,68.855,253.555,81.447,238.904,97.404z"/>
	<path style="fill:#C6A98D;" d="M441.745,264.195l12.219,9.055c7.162-9.665,13.078-20.2,17.58-31.313l-14.095-5.712
		C453.428,246.149,448.145,255.559,441.745,264.195z"/>
</g>
<path d="M388.107,245.889c-12.662,0-22.963,10.301-22.963,22.963c0,12.662,10.301,22.963,22.963,22.963
	c12.662,0,22.963-10.302,22.963-22.963C411.07,256.19,400.769,245.889,388.107,245.889z M388.107,276.607
	c-4.276,0-7.755-3.48-7.755-7.755c0-4.276,3.479-7.755,7.755-7.755c4.276,0,7.755,3.479,7.755,7.755
	C395.862,273.129,392.384,276.607,388.107,276.607z"/>
<path d="M341.143,147.338c-12.662,0-22.963,10.302-22.963,22.963c0,12.662,10.301,22.963,22.963,22.963
	c12.662,0,22.963-10.301,22.963-22.963C364.106,157.64,353.805,147.338,341.143,147.338z M341.143,178.057
	c-4.276,0-7.755-3.479-7.755-7.755s3.479-7.755,7.755-7.755c4.276,0,7.755,3.48,7.755,7.755S345.42,178.057,341.143,178.057z"/>
<path d="M454.137,207.763c0-15.694-12.768-28.462-28.462-28.462c-15.694,0-28.461,12.768-28.461,28.462
	c0,15.694,12.768,28.462,28.461,28.462C441.369,236.225,454.137,223.457,454.137,207.763z M425.675,221.017
	c-7.308,0-13.253-5.945-13.253-13.254c0-7.308,5.945-13.254,13.253-13.254c7.308,0,13.254,5.945,13.254,13.254
	C438.929,215.071,432.984,221.017,425.675,221.017z"/>
<path d="M180.878,232.206c12.662,0,22.963-10.301,22.963-22.963c0-12.662-10.301-22.963-22.963-22.963s-22.963,10.302-22.963,22.963
	C157.915,221.904,168.216,232.206,180.878,232.206z M180.878,201.488c4.276,0,7.755,3.48,7.755,7.755s-3.479,7.755-7.755,7.755
	s-7.755-3.479-7.755-7.755C173.123,204.967,176.601,201.488,180.878,201.488z"/>
<g>
	<path style="fill:#C6A98D;" d="M68.871,246.168l-12.161-9.131c-2.657,3.539-5.176,7.241-7.486,11.003l12.958,7.959
		C64.245,252.639,66.496,249.33,68.871,246.168z"/>
	<path style="fill:#C6A98D;" d="M124.386,203.899l-5.548-14.161c-20.076,7.866-38.432,20.458-53.084,36.415l11.202,10.286
		C90.051,222.178,106.452,210.925,124.386,203.899z"/>
	<path style="fill:#C6A98D;" d="M272.002,394.73l12.219,9.055c7.164-9.667,13.079-20.202,17.58-31.313l-14.095-5.711
		C283.685,376.682,278.402,386.093,272.002,394.73z"/>
	<path style="fill:#C6A98D;" d="M50.084,387.363c6.701,12.121,15.124,23.195,25.036,32.919l10.65-10.856
		c-8.86-8.692-16.388-18.59-22.376-29.42L50.084,387.363z"/>
	<path style="fill:#C6A98D;" d="M52.566,354.008l-14.657,4.055c1.522,5.498,3.394,10.958,5.567,16.228l14.059-5.797
		C55.596,363.79,53.924,358.918,52.566,354.008z"/>
</g>
<path d="M217.821,375.268c-12.662,0-22.963,10.302-22.963,22.963s10.302,22.963,22.963,22.963c12.662,0,22.963-10.301,22.963-22.963
	S230.482,375.268,217.821,375.268z M217.821,405.986c-4.276,0-7.755-3.479-7.755-7.755s3.48-7.755,7.755-7.755
	c4.276,0,7.755,3.48,7.755,7.755C225.576,402.507,222.096,405.986,217.821,405.986z"/>
<path d="M65.867,282.367c-12.662,0-22.963,10.301-22.963,22.963c0,12.662,10.302,22.963,22.963,22.963s22.963-10.302,22.963-22.963
	C88.829,292.668,78.529,282.367,65.867,282.367z M65.867,313.085c-4.276,0-7.755-3.48-7.755-7.755c0-4.276,3.48-7.755,7.755-7.755
	c4.276,0,7.755,3.479,7.755,7.755C73.622,309.606,70.143,313.085,65.867,313.085z"/>
<path d="M170.857,276.717c-12.662,0-22.963,10.302-22.963,22.963s10.302,22.963,22.963,22.963c12.662,0,22.963-10.301,22.963-22.963
	S183.519,276.717,170.857,276.717z M170.857,307.435c-4.276,0-7.755-3.479-7.755-7.755s3.48-7.755,7.755-7.755
	c4.276,0,7.755,3.48,7.755,7.755S175.133,307.435,170.857,307.435z"/>
<path d="M247.785,316.284c0,15.694,12.768,28.461,28.461,28.461c15.694,0,28.462-12.768,28.462-28.461
	c0-15.694-12.768-28.462-28.462-28.462C260.552,287.823,247.785,300.59,247.785,316.284z M289.5,316.284
	c0,7.308-5.945,13.253-13.254,13.253c-7.308,0-13.253-5.945-13.253-13.253c0-7.308,5.945-13.254,13.253-13.254
	C283.555,303.03,289.5,308.976,289.5,316.284z"/>
<path d="M129.355,397.117c-15.694,0-28.461,12.768-28.461,28.462c0,15.694,12.768,28.461,28.461,28.461s28.462-12.768,28.462-28.461
	C157.817,409.884,145.048,397.117,129.355,397.117z M129.355,438.831c-7.308,0-13.253-5.945-13.253-13.253
	c0-7.309,5.945-13.254,13.253-13.254c7.309,0,13.254,5.945,13.254,13.254C142.609,432.886,136.662,438.831,129.355,438.831z"/>
<g>
</g>
<g>
</g>
<g>
</g>
<g>
</g>
<g>
</g>
<g>
</g>
<g>
</g>
<g>
</g>
<g>
</g>
<g>
</g>
<g>
</g>
<g>
</g>
<g>
</g>
<g>
</g>
<g>
</g>
</svg>
