<?xml version="1.0" encoding="iso-8859-1"?>
<!-- Generator: Adobe Illustrator 19.0.0, SVG Export Plug-In . SVG Version: 6.00 Build 0)  -->
<svg version="1.1" id="Layer_1" xmlns="http://www.w3.org/2000/svg" xmlns:xlink="http://www.w3.org/1999/xlink" x="0px" y="0px"
	 viewBox="0 0 512 512" style="enable-background:new 0 0 512 512;" xml:space="preserve">
<path style="fill:#FC4F5C;" d="M371.743,504.906l52.371-253.796l4.415-1.485c4.911-1.651,8.253-5.825,11.201-9.508l2.551-3.211
	l12.63,5.803l-52.618,262.196H371.743z"/>
<path style="fill:#A58763;" d="M423.295,251.458c-8.66,0-13.02-5.445-17.235-10.712c-4.064-5.077-8.264-10.326-16.432-10.326
	c-8.16,0-12.361,5.238-16.425,10.304c-4.223,5.276-8.592,10.736-17.243,10.736s-13.01-5.446-17.225-10.713
	c-4.07-5.074-8.282-10.325-16.443-10.325c-8.168,0-12.368,5.249-16.431,10.324c-4.216,5.269-8.575,10.715-17.226,10.715
	c-8.669,0-13.021-5.448-17.229-10.717c-4.068-5.071-8.279-10.321-16.439-10.321c-8.149,0-12.351,5.239-16.414,10.304
	c-4.211,5.273-8.572,10.735-17.242,10.735c-8.65,0-13.009-5.446-17.225-10.713c-4.063-5.076-8.264-10.326-16.432-10.326
	c-8.17,0-12.366,5.245-16.425,10.317c-4.414,5.514-8.583,10.722-17.232,10.722c-8.671,0-13.023-5.449-17.23-10.72
	c-4.066-5.068-8.277-10.319-16.437-10.319c-4.195,0-7.52,1.262-10.783,4.089c-2.132,1.853-3.917,4.076-5.642,6.228
	c-4.219,5.271-8.582,10.722-17.232,10.722s-13.009-5.446-17.225-10.713c-3.556-4.434-7.236-9.022-13.458-10.075l-4.56-0.772
	l-1.657-4.315c-4.958-12.911-7.471-26.481-7.471-40.334c0-59.701,46.46-108.805,105.931-112.148
	c4.84-5.889,8.786-10.102,9.857-11.229C186.74,27.056,229.004,7.09,274.072,7.09c45.66,0,89.755,21.452,118.068,57.41
	c8.444,7.089,45.501,38.591,54.976,53.334c14.559,19.421,22.576,43.354,22.576,67.415c0,13.731-2.476,27.202-7.362,40.037
	l-1.826,4.798l-5.118,0.401c-0.561,0.044-1.109,0.119-1.675,0.23c-6.067,1.155-9.676,5.651-13.165,9.999
	C436.123,246.236,431.943,251.458,423.295,251.458z"/>
<g>
	<path style="fill:#A81124;" d="M226.255,504.906l-5.436-253.376l5.677-1.887c4.933-1.64,8.288-5.829,11.248-9.527
		c4.41-5.508,8.574-10.711,17.223-10.711c7.167,0,11.369,3.747,14.841,7.797c0.812,0.944,1.669,2.009,2.401,2.925
		c2.946,3.68,6.29,7.857,11.193,9.503l5.716,1.92l-8.085,253.357H226.255z"/>
	<path style="fill:#A81124;" d="M107.68,504.906l-52.611-262.16l12.562-5.89l2.61,3.264c3.134,3.915,6.687,8.355,12.135,9.788
		l4.862,1.279l52.357,253.719L107.68,504.906L107.68,504.906z"/>
	<path style="fill:#A81124;" d="M138.564,504.906L86.336,251.851l6.316-2.513c4.502-1.792,7.665-5.739,10.454-9.222
		c4.213-5.265,8.571-10.71,17.223-10.71c7.167,0,11.359,3.738,14.821,7.777c0.757,0.89,1.537,1.854,2.404,2.937
		c3.039,3.789,6.489,8.089,11.681,9.642l5.3,1.585l20.986,253.56L138.564,504.906L138.564,504.906z"/>
	<path style="fill:#A81124;" d="M174.514,504.906l-20.985-253.374l5.878-1.964l0.096-0.045l0.284-0.108
		c4.584-1.74,7.801-5.753,10.638-9.294c4.216-5.267,8.576-10.714,17.226-10.714c7.171,0,11.361,3.748,14.82,7.798
		c0.726,0.841,1.51,1.809,2.381,2.884c3.012,3.758,6.41,7.998,11.455,9.604l5.524,1.757l5.44,253.457L174.514,504.906
		L174.514,504.906z"/>
	<path style="fill:#A81124;" d="M280.021,504.906l8.093-253.506l5.523-1.709c0.219-0.067,0.432-0.138,0.64-0.22
		c4.759-1.81,7.963-5.815,10.789-9.35c4.217-5.269,8.577-10.716,17.227-10.716c7.166,0,11.358,3.738,14.82,7.776
		c0.758,0.892,1.55,1.856,2.416,2.938c3.073,3.841,6.555,8.194,11.853,9.703l6.408,1.826l-20.96,253.258L280.021,504.906
		L280.021,504.906z"/>
	<path style="fill:#A81124;" d="M335.813,504.906l20.983-253.501l4.848-1.947c4.717-1.795,7.919-5.801,10.744-9.335
		c4.219-5.271,8.579-10.717,17.24-10.717c7.179,0,11.366,3.743,14.82,7.788c0.72,0.834,1.485,1.775,2.404,2.924
		c2.963,3.697,6.322,7.889,11.281,9.533l6.848,2.269l-52.2,252.986L335.813,504.906L335.813,504.906z"/>
</g>
<g>
	<path style="fill:#FF1D25;" d="M280.821,257.315l-7.642,239.482h-21.627l-5.138-239.462c7.196-2.392,11.594-7.875,15.02-12.151
		c0.801-1.003,1.53-1.905,2.219-2.706c0.689,0.801,1.419,1.703,2.22,2.706c1.581,1.986,3.385,4.226,5.564,6.283
		C273.95,253.87,276.99,256.028,280.821,257.315z"/>
	<path style="fill:#FF1D25;" d="M166.715,496.798h-4.236l-2.047-9.902L112.971,256.87c6.466-2.574,10.56-7.662,13.783-11.685
		c0.811-1.013,1.54-1.915,2.24-2.726c0.689,0.811,1.419,1.713,2.23,2.726c3.537,4.409,8.098,10.074,15.688,12.344L166.715,496.798z"
		/>
	<path style="fill:#FF1D25;" d="M218.99,496.798h-19.702l-19.834-239.594c6.963-2.463,11.26-7.824,14.624-12.02
		c0.801-1.003,1.53-1.905,2.23-2.716c0.699,0.811,1.429,1.713,2.24,2.716c1.054,1.318,2.199,2.747,3.496,4.165
		c2.959,3.253,6.689,6.436,11.807,8.067L218.99,496.798z"/>
	<path style="fill:#FF1D25;" d="M349.159,257.62l-19.793,239.178h-23.664l7.642-239.361c7.398-2.331,11.888-7.905,15.374-12.253
		c0.811-1.013,1.54-1.915,2.24-2.726c0.689,0.811,1.429,1.713,2.24,2.726c1.034,1.297,2.169,2.706,3.436,4.105
		C339.724,252.694,343.656,256.049,349.159,257.62z"/>
	<path style="fill:#FF1D25;" d="M415.582,257.346l-49.407,239.452h-4.246l19.854-239.736c6.74-2.513,10.956-7.753,14.26-11.878
		c0.811-1.013,1.54-1.915,2.24-2.726c0.699,0.811,1.429,1.713,2.24,2.726C403.958,249.471,408.366,254.954,415.582,257.346z"/>
</g>
<path style="fill:#8C6D4B;" d="M456.435,197.247c0,8.756-1.48,17.371-4.277,25.509c-8.989,1.713-14.087,8.087-17.969,12.922
	c-4.145,5.179-6.334,7.672-10.895,7.672s-6.76-2.493-10.905-7.672c-4.51-5.635-10.702-13.368-22.762-13.368
	c-12.07,0-18.253,7.733-22.773,13.368c-4.145,5.179-6.334,7.672-10.895,7.672c-4.561,0-6.75-2.493-10.895-7.672
	c-4.52-5.635-10.702-13.368-22.773-13.368c-12.06,0-18.253,7.733-22.762,13.368c-4.145,5.179-6.334,7.672-10.895,7.672
	c-4.561,0-6.76-2.493-10.895-7.672c-4.52-5.635-10.702-13.368-22.773-13.368c-12.06,0-18.242,7.733-22.762,13.368
	c-4.135,5.179-6.334,7.672-10.895,7.672s-6.75-2.493-10.895-7.672c-4.51-5.635-10.692-13.368-22.762-13.368
	c-12.07,0-18.253,7.733-22.762,13.368c-4.145,5.179-6.334,7.672-10.895,7.672s-6.76-2.493-10.895-7.672
	c-4.52-5.635-10.702-13.368-22.773-13.368c-7.135,0-12.212,2.706-16.094,6.071c-8.179-11.32-12.739-25.104-12.739-39.211
	c0-36.911,29.918-66.828,66.828-66.828c5.27,0,10.388,0.608,15.303,1.774c5.007,1.165,9.8,2.899,14.31,5.138
	c9.638,4.773,17.969,11.807,24.283,20.411c9.496-14.026,25.56-23.239,43.782-23.239c22.965,0,42.505,14.655,49.792,35.127
	c13.084-26.006,39.991-43.853,71.085-43.853C420.812,117.7,456.435,153.313,456.435,197.247z"/>
<g>
	<circle style="fill:#A58763;" cx="143.607" cy="191.333" r="25.135"/>
	<circle style="fill:#A58763;" cx="252.291" cy="179.272" r="19.009"/>
	<circle style="fill:#A58763;" cx="389.322" cy="177.286" r="30.162"/>
</g>
<path style="fill:#8C6D4B;" d="M288.633,112.494c0,0,21.105-37.742,65.678-39.272c-15.447-21.897-40.923-36.212-69.757-36.212
	c-38.862,0-71.634,25.988-81.942,61.527C215.897,92.574,246.483,85.015,288.633,112.494z"/>
<path d="M409.904,77.974C381.734,29.817,329.915,0,274.075,0c-51.017,0-98.649,24.651-128.18,66.133
	c-29.411,2.13-56.739,14.934-77.31,36.306c-21.521,22.36-33.374,51.77-33.374,82.813c0,17.566,3.868,34.861,11.246,50.63
	L101.869,512h306.235l54.086-269.513c9.548-17.466,14.6-37.207,14.6-57.236C476.788,139.8,450.615,97.961,409.904,77.974z
	 M114.323,496.798L63.8,245.048c0.035,0.044,0.071,0.088,0.105,0.132c3.643,4.553,8.376,10.456,16.407,12.569l49.329,239.049
	L114.323,496.798L114.323,496.798z M145.165,496.798l-49.51-239.926c6.466-2.581,10.556-7.661,13.781-11.691
	c4.142-5.176,6.335-7.664,10.895-7.664c4.561,0,6.755,2.488,10.897,7.664c3.531,4.412,8.096,10.082,15.683,12.351l19.808,239.266
	h-21.554V496.798z M181.973,496.798l-19.836-239.597c6.962-2.46,11.257-7.817,14.62-12.021c4.142-5.176,6.336-7.664,10.897-7.664
	c4.56,0,6.753,2.488,10.894,7.664c3.471,4.338,7.941,9.894,15.3,12.238l5.14,239.38L181.973,496.798L181.973,496.798z
	 M273.178,496.798h-38.983l-5.142-239.463c7.199-2.392,11.596-7.871,15.024-12.155c4.142-5.176,6.335-7.664,10.895-7.664
	c4.561,0,6.754,2.488,10.897,7.664c3.417,4.271,7.798,9.73,14.958,12.134L273.178,496.798z M288.388,496.798l7.644-239.361
	c7.399-2.331,11.887-7.906,15.368-12.257c4.143-5.176,6.336-7.664,10.897-7.664c4.562,0,6.756,2.488,10.899,7.665
	c3.576,4.467,8.209,10.226,15.969,12.436l-19.801,239.18L288.388,496.798L288.388,496.798z M344.617,496.798l19.847-239.738
	c6.747-2.515,10.958-7.75,14.262-11.879c4.143-5.176,6.336-7.665,10.898-7.665c4.563,0,6.757,2.488,10.9,7.665
	c3.434,4.29,7.841,9.777,15.059,12.164l-49.412,239.454h-21.553V496.798z M395.648,496.798h-13.954l49.419-239.488
	c7.154-2.406,11.531-7.861,14.948-12.13c0.036-0.046,0.074-0.092,0.11-0.138L395.648,496.798z M454.749,222.405
	c-10.63,0.876-16.326,7.991-20.557,13.276c-4.143,5.177-6.337,7.665-10.9,7.665c-4.563,0-6.757-2.488-10.9-7.665
	c-4.515-5.641-10.7-13.367-22.769-13.367c-12.068,0-18.252,7.727-22.767,13.368c-4.143,5.176-6.336,7.664-10.897,7.664
	c-4.562,0-6.755-2.488-10.898-7.664c-4.515-5.641-10.699-13.368-22.768-13.368c-12.067,0-18.252,7.727-22.766,13.368
	c-4.143,5.176-6.336,7.664-10.897,7.664s-6.754-2.488-10.897-7.664c-4.514-5.641-10.698-13.368-22.766-13.368
	s-18.251,7.727-22.765,13.368c-4.141,5.176-6.334,7.664-10.894,7.664s-6.753-2.488-10.894-7.664
	c-4.514-5.641-10.696-13.368-22.764-13.368c-12.068,0-18.251,7.727-22.766,13.368c-4.142,5.176-6.335,7.664-10.896,7.664
	s-6.755-2.488-10.896-7.664c-4.515-5.641-10.698-13.368-22.766-13.368s-18.25,7.727-22.765,13.368
	c-4.142,5.176-6.335,7.664-10.895,7.664s-6.753-2.488-10.895-7.664c-3.94-4.923-9.153-11.432-18.436-13.01
	c-4.559-11.874-6.928-24.562-6.928-37.42c0-55.822,43.432-101.375,99.04-104.1c0.884,0.125,1.863,0.181,3.051,0.245
	c6.877,0.37,25.932,1.405,41.743,15.944c-15.38,11.633-25.34,30.072-25.34,50.798c0,0.599,0.008,1.196,0.024,1.791l15.196-0.415
	c-0.012-0.457-0.019-0.916-0.019-1.376c0-26.722,21.74-48.463,48.462-48.463c10.544,0,20.566,3.326,28.985,9.619l9.101-12.177
	c-11.066-8.272-24.236-12.645-38.086-12.645c-8.74,0-17.073,1.773-24.662,4.973c-14.622-15.398-31.904-20.423-43.741-22.201
	c26.88-32.803,67.072-52.043,109.908-52.043c44.148,0,85.499,20.643,112.197,54.959c-11.773-2.825-27.371-5.258-44.031-4.236
	l0.932,15.174c29.402-1.805,56.064,8.778,58.209,9.652c36.577,17.077,60.205,54.158,60.205,94.502
	C461.586,197.996,459.24,210.604,454.749,222.405z"/>
<g>
	<path style="fill:#C6A98D;" d="M416.993,138.705c12.002,15.174,16.704,28.523,13.974,39.677l14.767,3.613
		c3.902-15.943-1.756-33.682-16.816-52.723L416.993,138.705z"/>
	<path style="fill:#C6A98D;" d="M73.472,158.134l15.058,2.086c0.021-0.158,2.695-16.171,20.986-30.581l-9.408-11.941
		C76.763,136.091,73.596,157.244,73.472,158.134z"/>
	<path style="fill:#C6A98D;" d="M113.128,109.063l7.398,13.28c3.662-2.039,7.628-3.918,11.792-5.582l-5.645-14.116
		C121.911,104.55,117.353,106.709,113.128,109.063z"/>
	<rect x="376.877" y="133.818" style="fill:#C6A98D;" width="15.293" height="15.202"/>
	<rect x="146.343" y="186.813" style="fill:#C6A98D;" width="15.293" height="15.202"/>
	<rect x="272.936" y="171.671" style="fill:#C6A98D;" width="15.293" height="15.202"/>
	<rect x="233.187" y="142.119" style="fill:#C6A98D;" width="15.293" height="15.202"/>
	<rect x="280.982" y="53.106" style="fill:#C6A98D;" width="15.293" height="15.202"/>
</g>
<g>
	<path style="fill:#FC4F5C;" d="M415.582,257.346l-49.407,239.452h-3.111l37.458-251.614
		C403.958,249.471,408.366,254.954,415.582,257.346z"/>
	<path style="fill:#FC4F5C;" d="M349.159,257.62l-19.793,239.178h-13.682l20.948-247.509
		C339.724,252.694,343.656,256.049,349.159,257.62z"/>
	<path style="fill:#FC4F5C;" d="M280.821,257.315l-7.642,239.482h-9.192l7.449-245.33C273.95,253.87,276.99,256.028,280.821,257.315
		z"/>
	<path style="fill:#FC4F5C;" d="M218.99,496.798h-13.601l-3.344-247.448c2.959,3.253,6.689,6.436,11.807,8.067L218.99,496.798z"/>
	<path style="fill:#FC4F5C;" d="M166.715,496.798h-4.236l-2.047-9.902l-31.438-244.438c0.689,0.811,1.419,1.713,2.23,2.726
		c3.537,4.409,8.098,10.074,15.688,12.344L166.715,496.798z"/>
</g>
<g>
	<circle style="fill:#A58763;" cx="312.015" cy="202.866" r="4.581"/>
	<circle style="fill:#A58763;" cx="197.919" cy="170.81" r="4.617"/>
	<circle style="fill:#A58763;" cx="246.565" cy="68.898" r="5.729"/>
	<circle style="fill:#A58763;" cx="314.832" cy="70.203" r="4.424"/>
	<circle style="fill:#A58763;" cx="343.128" cy="150.713" r="6.611"/>
</g>
<g>
</g>
<g>
</g>
<g>
</g>
<g>
</g>
<g>
</g>
<g>
</g>
<g>
</g>
<g>
</g>
<g>
</g>
<g>
</g>
<g>
</g>
<g>
</g>
<g>
</g>
<g>
</g>
<g>
</g>
</svg>
