<?xml version="1.0" encoding="iso-8859-1"?>
<!-- Generator: Adobe Illustrator 19.0.0, SVG Export Plug-In . SVG Version: 6.00 Build 0)  -->
<svg version="1.1" id="Layer_1" xmlns="http://www.w3.org/2000/svg" xmlns:xlink="http://www.w3.org/1999/xlink" x="0px" y="0px"
	 viewBox="0 0 512 512" style="enable-background:new 0 0 512 512;" xml:space="preserve">
<path style="fill:#FCC062;" d="M66.764,477.542c-2.075,0-4.148-0.202-6.164-0.599c-15.018-2.912-25.929-16.155-25.929-31.484V224.21
	h454.137l0.001,203.514c9.661,3.423,16.092,12.824,16.092,24.224c0,0.929-0.054,1.888-0.16,2.85
	c-1.446,12.968-12.379,22.743-25.434,22.743L66.764,477.542L66.764,477.542z"/>
<path style="fill:#FEC377;" d="M85.764,225.224l13.442-13.777c2.513-2.575,5.363-5.54,8.472-8.814
	c10.771-11.327,25.631-27.412,44.172-47.812c25.744-28.35,51.31-57.047,58.532-65.168l4.161-4.678l26.072,13.262l248.193,125.971
	l-28.246,1.014H85.764V225.224z"/>
<g>
	<path style="fill:#FEDAAA;" d="M31.496,225.224c-3.886,0-7.741-0.938-11.148-2.711c-8.16-4.174-13.249-12.49-13.249-21.686
		c0-4.633,1.301-9.138,3.761-13.027c1.161-1.846,2.597-3.553,4.261-5.065c4.144-3.76,9.634-5.747,15.878-5.747
		c0.976,0,1.916,0.044,2.794,0.13c0.696,0.063,1.606,0.145,2.668,0.145c3.771,0,6.568-1.074,8.549-3.281
		c3.253-3.621,2.735-7.572,1.649-12.756c-0.965-4.601-1.964-9.358,1.862-13.649c2.958-3.28,6.473-3.658,8.862-3.658
		c1.119,0,2.434,0.085,4.538,0.296c1.393,0.135,2.848,0.276,4.282,0.276c3.698,0,6.161-0.985,8.235-3.294
		c3.252-3.62,2.734-7.571,1.648-12.755c-0.968-4.615-1.971-9.389,1.903-13.683c2.868-3.248,6.416-3.628,8.832-3.628
		c1.104,0,2.411,0.084,4.511,0.289c1.407,0.139,2.853,0.283,4.305,0.283c3.695,0,6.154-0.985,8.224-3.294
		c3.268-3.639,2.746-7.58,1.652-12.749c-0.971-4.64-1.974-9.427,1.929-13.714c2.846-3.225,6.394-3.605,8.811-3.605
		c1.117,0,2.431,0.085,4.532,0.295c1.392,0.138,2.835,0.281,4.285,0.281c3.69,0,6.15-0.985,8.226-3.293
		c3.567-3.973,3.12-8.505,2.648-13.303c-0.393-3.902-0.8-7.944,1.044-11.746c4.043-8.351,12.016-12.289,17.992-14.121
		c4.407-1.349,9.13-2.032,14.042-2.032c7.745,0,15.126,1.698,20.25,4.661c5.956,3.45,10.613,7.498,14.236,12.378
		c0.8,1.075,1.553,2.197,2.3,3.429c4.742,7.876,6.418,16.203,8.192,25.021c0.065,0.311,1.177,5.877,1.177,5.877L85.591,225.224
		H31.496z"/>
	<rect x="89.923" y="229.279" style="fill:#FEDAAA;" width="393.813" height="193.008"/>
	<path style="fill:#FEDAAA;" d="M428.037,202.611H147.763c2.464-2.525,5.293-5.466,8.548-8.893
		c11.012-11.58,25.908-27.713,44.292-47.943c12.868-14.166,25.685-28.423,36.332-40.307L428.037,202.611z"/>
</g>
<path style="fill:#FCC062;" d="M206.404,83.312L82.055,217.112H31.496c-2.657,0-5.182-0.639-7.402-1.795
	c-1.156-2.221-1.795-4.746-1.795-7.402c0-3.093,0.862-6.094,2.505-8.69c0.791-1.257,1.754-2.393,2.86-3.397
	c3.184-2.89,7.149-3.64,10.424-3.64c0.7,0,1.379,0.03,1.998,0.091c3.255,0.294,11.894,1.065,18.049-5.79
	c6.256-6.966,4.624-14.724,3.549-19.854c-0.943-4.492-0.943-5.537-0.02-6.571c0.933-1.034,1.967-1.146,6.54-0.69
	c5.222,0.507,13.101,1.298,19.358-5.668c6.256-6.966,4.624-14.724,3.549-19.854c-0.943-4.492-0.943-5.537-0.01-6.571
	c0.923-1.044,1.967-1.146,6.53-0.7c5.222,0.517,13.111,1.298,19.358-5.668c6.256-6.966,4.634-14.713,3.549-19.844
	c-0.943-4.502-0.943-5.547-0.01-6.571c0.923-1.044,1.967-1.156,6.54-0.7c5.212,0.517,13.091,1.298,19.347-5.658
	c5.973-6.652,5.222-14.115,4.685-19.56c-0.304-3.022-0.568-5.638,0.274-7.372c2.768-5.719,8.639-8.548,13.071-9.907
	c10.434-3.194,22.136-1.409,27.855,1.896c1.724,0.994,3.275,2.028,4.695,3.103c0.679,0.913,1.298,1.846,1.876,2.799
	c4.005,6.652,5.526,14.217,7.179,22.43C206.171,82.116,206.282,82.714,206.404,83.312z"/>
<path style="fill:#FFA834;" d="M206.404,83.312L82.055,217.112H37.053c-0.01-0.162-0.01-0.324-0.01-0.487
	c0-3.093,0.862-6.094,2.494-8.68c0.801-1.257,1.764-2.403,2.86-3.407c3.194-2.88,7.159-3.64,10.424-3.64
	c0.71,0,1.379,0.041,2.008,0.091c3.245,0.294,11.884,1.075,18.049-5.79c6.246-6.966,4.624-14.724,3.549-19.854
	c-0.943-4.492-0.943-5.537-0.02-6.571c0.933-1.034,1.967-1.146,6.54-0.69c5.212,0.517,13.101,1.298,19.358-5.668
	c6.246-6.966,4.624-14.724,3.549-19.854c-0.943-4.492-0.943-5.537-0.02-6.571c0.933-1.034,1.967-1.146,6.54-0.69
	c5.222,0.517,13.101,1.298,19.358-5.668c6.256-6.966,4.624-14.724,3.549-19.854c-0.943-4.492-0.943-5.537-0.02-6.571
	c0.933-1.034,1.977-1.146,6.54-0.69c5.222,0.507,13.101,1.288,19.358-5.668c5.973-6.652,5.222-14.115,4.675-19.56
	c-0.294-3.022-0.558-5.638,0.274-7.362c2.778-5.729,8.65-8.548,13.081-9.907c6.672-2.048,13.872-2.058,19.682-0.923
	c4.005,6.652,5.526,14.217,7.179,22.43C206.171,82.116,206.282,82.714,206.404,83.312z"/>
<g>
	<rect x="339.442" y="181.225" style="fill:#FEF5CC;" width="15.21" height="12.482"/>
	<rect x="245.838" y="133.14" style="fill:#FEF5CC;" width="15.21" height="12.483"/>
	<rect x="282.738" y="183.841" style="fill:#FEF5CC;" width="15.21" height="12.483"/>
	<rect x="180.475" y="185.575" style="fill:#FEF5CC;" width="15.21" height="12.483"/>
	<rect x="219.666" y="322.061" style="fill:#FEF5CC;" width="103.876" height="15.21"/>
	<rect x="339.979" y="322.061" style="fill:#FEF5CC;" width="14.013" height="15.21"/>
	<rect x="329.292" y="252.53" style="fill:#FEF5CC;" width="103.876" height="15.21"/>
	<rect x="449.605" y="252.53" style="fill:#FEF5CC;" width="14.013" height="15.21"/>
</g>
<g>
	<path style="fill:#FFA834;" d="M77.756,232.322V248.8H62.17v220.183c-11.032-2.14-19.388-11.874-19.388-23.525V232.322
		L77.756,232.322L77.756,232.322z"/>
	<path style="fill:#FFA834;" d="M496.788,451.948c0,0.659-0.041,1.318-0.112,1.957H77.756v-19.449h401.55
		C488.949,434.456,496.788,442.305,496.788,451.948z"/>
</g>
<g>
	<polygon style="fill:#FEC377;" points="480.696,232.322 480.696,252.531 126.5,252.531 126.5,282.952 92.966,282.952 
		92.966,232.322 	"/>
	<polygon style="fill:#FEC377;" points="480.696,298.617 480.696,322.295 126.5,322.295 126.5,352.479 92.966,352.479 
		92.966,298.617 	"/>
	<polygon style="fill:#FEC377;" points="480.696,367.693 480.696,388.749 126.5,388.749 126.5,419.246 92.966,419.246 
		92.966,367.693 	"/>
</g>
<g>
	<rect x="323.542" y="388.753" style="fill:#FEF5CC;" width="103.876" height="15.21"/>
	<rect x="443.855" y="388.753" style="fill:#FEF5CC;" width="14.012" height="15.21"/>
</g>
<path d="M495.904,423.794v-203.74L221.364,80.48c-0.133-0.653-0.273-1.299-0.405-1.954c-2.97-14.77-6.667-33.152-28.13-45.578
	c-10.318-5.974-26.738-7.32-39.928-3.274c-10.51,3.223-18.225,9.386-22.309,17.823c-2.709,5.598-2.16,11.092-1.718,15.506
	c0.452,4.522,0.496,6.373-0.861,7.883c-0.93,1.034-1.968,1.143-6.537,0.691c-5.219-0.516-13.104-1.298-19.359,5.667
	c-6.253,6.966-4.627,14.722-3.55,19.854c0.943,4.494,0.945,5.538,0.018,6.571c-0.93,1.035-1.97,1.145-6.538,0.692
	c-5.217-0.516-13.104-1.3-19.358,5.667c-6.253,6.967-4.627,14.722-3.551,19.855c0.943,4.494,0.945,5.539,0.017,6.573
	c-0.929,1.033-1.966,1.144-6.536,0.691c-5.219-0.519-13.104-1.301-19.358,5.666c-6.253,6.966-4.627,14.721-3.55,19.853
	c0.942,4.494,0.945,5.538,0.017,6.572c-0.373,0.415-1.069,1.187-5.366,0.804c-9.27-0.834-17.789,1.803-23.997,7.423
	c-2.126,1.926-3.981,4.129-5.511,6.552C1.678,189.043,0,194.854,0,200.823c0,16.041,12.053,29.319,27.576,31.258v213.375
	c0,21.609,17.58,39.189,39.188,39.189h412.538c18.029,0,32.698-14.668,32.698-32.698C512,439.975,505.529,429.491,495.904,423.794z
	 M92.971,352.479v-54.316h387.722v54.316H92.971z M480.693,367.689v51.561h-1.391H92.971v-51.561H480.693z M92.971,282.952v-50.629
	h387.722v50.629H92.971z M456.558,217.114H105.016c2.462-2.523,5.288-5.462,8.548-8.892c11.008-11.58,25.908-27.712,44.286-47.948
	c24.747-27.247,49.291-54.775,58.595-65.232L456.558,217.114z M35.181,217.114h-3.68c-8.983,0-16.291-7.308-16.291-16.291
	c0-3.088,0.865-6.091,2.504-8.683c0.793-1.256,1.755-2.4,2.86-3.4c3.189-2.887,7.153-3.64,10.424-3.64
	c0.704,0,1.377,0.035,2.003,0.091c3.25,0.292,11.889,1.069,18.047-5.792c6.253-6.966,4.627-14.723,3.55-19.854
	c-0.943-4.494-0.945-5.538-0.017-6.571c0.928-1.034,1.965-1.145,6.536-0.691c5.218,0.516,13.103,1.301,19.357-5.666
	c6.253-6.966,4.627-14.723,3.551-19.854c-0.943-4.494-0.945-5.539-0.016-6.573c0.929-1.035,1.968-1.144,6.537-0.692
	c5.219,0.517,13.104,1.299,19.358-5.667c6.253-6.966,4.627-14.721,3.55-19.853c-0.943-4.494-0.945-5.538-0.018-6.571
	c0.93-1.035,1.969-1.146,6.539-0.693c5.217,0.516,13.098,1.298,19.351-5.66c5.975-6.65,5.227-14.114,4.682-19.564
	c-0.302-3.022-0.564-5.633,0.275-7.364c2.771-5.725,8.641-8.548,13.078-9.908c10.434-3.2,22.135-1.412,27.847,1.896
	c15.525,8.987,17.988,21.235,20.839,35.414c0.12,0.596,0.239,1.191,0.36,1.786L82.051,217.114H42.786H35.181z M479.302,469.435
	H66.764c-13.222,0-23.978-10.757-23.978-23.978V232.324H77.76V434.46h401.541c9.642,0,17.488,7.844,17.488,17.488
	C496.79,461.59,488.945,469.435,479.302,469.435z"/>
<g>
</g>
<g>
</g>
<g>
</g>
<g>
</g>
<g>
</g>
<g>
</g>
<g>
</g>
<g>
</g>
<g>
</g>
<g>
</g>
<g>
</g>
<g>
</g>
<g>
</g>
<g>
</g>
<g>
</g>
</svg>
