<?xml version="1.0" encoding="iso-8859-1"?>
<!-- Generator: Adobe Illustrator 19.0.0, SVG Export Plug-In . SVG Version: 6.00 Build 0)  -->
<svg version="1.1" id="Layer_1" xmlns="http://www.w3.org/2000/svg" xmlns:xlink="http://www.w3.org/1999/xlink" x="0px" y="0px"
	 viewBox="0 0 511.999 511.999" style="enable-background:new 0 0 511.999 511.999;" xml:space="preserve">
<polygon style="fill:#8C6D4B;" points="56.079,338.461 69.956,236.053 78.688,166.932 436.535,166.932 442.564,239.891 
	455.921,338.461 "/>
<path style="fill:#E5E9EA;" d="M302.862,294.757c-8.108,0-14.704-6.596-14.704-14.704v-61.502c-3.668-2.62-6.576-6.042-9.391-9.353
	c-5.882-6.893-11.439-13.404-22.776-13.404c-11.337,0-16.891,6.507-22.77,13.396c-5.776,6.78-11.751,13.795-23.58,13.795
	c-11.827,0-17.797-7.008-23.571-13.785c-5.883-6.893-11.44-13.406-22.777-13.406c-11.34,0-16.892,6.508-22.771,13.398l-0.426,0.501
	c-0.639,0.753-1.235,1.454-1.836,2.126c-1.893,2.151-4.229,4.645-7.052,6.674v18.902c0,8.108-6.596,14.704-14.704,14.704
	s-14.705-6.596-14.705-14.704v-19.569c-3.2-2.487-5.855-5.604-8.425-8.623c-3.608-4.222-7.337-8.585-12.509-11.135l-5.399-2.662
	l3.39-25.04c1.023-7.618,3.132-14.797,6.272-21.333c5.873-12.246,15.547-22.626,28.75-30.849c6.475-4.046,14.023-7.693,22.43-10.837
	c28.65-10.73,67.803-15.946,119.692-15.946c51.89,0,91.044,5.216,119.696,15.946c7.313,2.725,14.016,5.862,19.913,9.319
	c15.659,9.145,26.654,21.099,32.678,35.525c2.35,5.605,3.986,11.723,4.858,18.178l3.39,25.037l-5.399,2.663
	c-5.207,2.566-8.916,6.92-12.506,11.13c-2.597,3.043-5.052,5.92-8.062,8.331v37.936c0,8.108-6.596,14.704-14.704,14.704
	c-1.083,0-2.142-0.114-3.145-0.34c-6.67-1.411-11.56-7.458-11.56-14.363v-36.721c-3.767-2.61-6.772-6.133-9.679-9.542
	c-5.879-6.899-11.428-13.41-22.793-13.41c-0.374,0-0.745,0.002-1.106,0.029l-0.146,0.008c-10.543,0.486-15.885,6.746-21.541,13.374
	l-0.092,0.109c-2.518,2.951-5.125,6.006-8.238,8.447v62.294C317.566,288.161,310.97,294.757,302.862,294.757z"/>
<path style="fill:#99A0A4;" d="M91.932,420.598l-1.98-1.181c-7.675-4.576-46.2-29.592-50.906-72.728l-1.01-9.274h435.932
	l-1.015,9.277c-0.814,7.428-2.682,14.775-5.554,21.838c-11.893,29.222-37.719,46.338-45.351,50.887l-1.982,1.18L91.932,420.598
	L91.932,420.598z"/>
<path style="fill:#A58763;" d="M446.345,330.095H65.655l12.591-92.919c4.696,8.178,9.935,15.792,16.231,21.679v16.21
	c0,12.142,9.883,22.024,22.024,22.024s22.024-9.883,22.024-22.024v-15.394c2.855-2.531,5.239-5.323,7.561-8.053
	c5.898-6.923,9.611-10.834,17.203-10.834c7.592,0,11.305,3.911,17.203,10.834c6.212,7.289,13.94,16.356,29.146,16.356
	c15.206,0,22.934-9.067,29.146-16.356c5.898-6.923,9.6-10.834,17.203-10.834c7.592,0,11.305,3.911,17.203,10.834
	c2.384,2.792,4.905,5.396,7.645,7.707c3.524,2.97,7.415,5.438,11.891,7.185c4.507,1.767,9.653,2.374,14.171,0.638
	c5.553-2.133,12.529-5.543,17.988-9.433c1.422-1.004,2.74-2.05,3.901-3.116c6.358-5.804,10.144-13.815,19.901-13.815
	c7.603,0,11.315,3.911,17.224,10.834c2.75,3.242,5.47,6.338,8.513,8.91c3.922,3.315,8.387,5.741,14.202,6.442
	c10.876,1.318,20.675-3.545,29.23-10.374c6.107-4.873,11.577-10.761,16.346-16.105L446.345,330.095z"/>
<circle style="fill:#C6A98D;" cx="358.258" cy="293.941" r="30.034"/>
<path style="fill:#CCD6DB;" d="M346.963,187.48c-14.076,0.648-21.46,9.297-27.431,16.293c-2.437,2.855-4.737,5.564-7.279,7.519
	l-3.054,2.353v66.408c0,3.493-2.845,6.338-6.337,6.338s-6.338-2.845-6.338-6.338v-65.875l-3.357-2.332
	c-2.845-1.987-5.365-4.936-8.032-8.074c-6.212-7.279-13.94-16.346-29.146-16.346c-15.206,0-22.934,9.067-29.146,16.346
	c-5.898,6.923-9.611,10.845-17.203,10.845c-7.603,0-11.305-3.922-17.203-10.845c-6.212-7.279-13.94-16.346-29.146-16.346
	s-22.934,9.067-29.146,16.346c-0.711,0.837-1.412,1.673-2.123,2.468c-1.903,2.165-3.796,4.12-5.846,5.564l-3.336,2.343v23.248
	c0,3.493-2.845,6.338-6.338,6.338s-6.338-2.845-6.338-6.338v-23.708l-3.085-2.353c-2.562-1.956-4.884-4.675-7.341-7.561
	c-3.869-4.528-8.45-9.893-15.174-13.208l2.583-19.075c0.91-6.787,2.75-13.062,5.522-18.835c25.183-6.17,56.944-9.182,96.255-9.182
	c50.857,0,89.06,5.041,116.763,15.415c6.902,2.573,13.104,5.469,18.615,8.701C333.912,173.204,341.452,179.814,346.963,187.48z"/>
<path style="fill:#ABB2B7;" d="M459.648,365.38c-11.002,27.034-35.463,43.024-41.884,46.852H114.368
	C103.9,401.02,93.724,385.313,91.559,365.38H459.648z"/>
<path style="fill:#E5E9EA;" d="M211.882,274.15c-5.739,0-10.409-4.669-10.409-10.409s4.669-10.41,10.409-10.41
	c5.739,0,10.409,4.669,10.409,10.41C222.291,269.48,217.621,274.15,211.882,274.15z"/>
<g>
	<path style="fill:#FFFFFF;" d="M321.173,132.92c-4.947-0.685-10.181-1.286-15.56-1.787l1.457-15.62
		c5.61,0.523,11.079,1.151,16.255,1.868L321.173,132.92z"/>
	<path style="fill:#FFFFFF;" d="M393.335,166.089c-4.263-9.633-14.348-17.314-30.833-23.485c-7.771-2.908-16.936-5.389-27.241-7.371
		l2.964-15.405c11.166,2.148,21.184,4.867,29.776,8.084c20.642,7.726,33.621,18.137,39.68,31.828L393.335,166.089z"/>
</g>
<rect x="148.952" y="255.895" style="fill:#C6A98D;" width="16.316" height="15.687"/>
<g>
	<rect x="338.806" y="151.766" style="fill:#FFFFFF;" width="16.315" height="15.687"/>
	<rect x="161.565" y="138.589" style="fill:#FFFFFF;" width="16.316" height="15.687"/>
	<rect x="199.391" y="159.609" style="fill:#FFFFFF;" width="16.316" height="15.687"/>
</g>
<g>
	<rect x="225.327" y="380.962" style="fill:#C8D1D6;" width="149.737" height="15.687"/>
	<rect x="390.73" y="380.962" style="fill:#C8D1D6;" width="15.781" height="15.687"/>
</g>
<path style="fill:#CCD6DB;" d="M394.557,227.147v34.522c-2.865-0.607-5.03-3.148-5.03-6.202v-41.162
	C389.527,214.304,394.557,215.245,394.557,227.147z"/>
<g>
	<circle style="fill:#C6A98D;" cx="254.222" cy="285.847" r="14.833"/>
	<circle style="fill:#C6A98D;" cx="171.468" cy="302.831" r="16.129"/>
	<circle style="fill:#C6A98D;" cx="93.515" cy="310.287" r="7.454"/>
</g>
<path d="M444.816,201.983L444.816,201.983l-4.417-32.604c-4.321-31.897-25.226-55.075-62.133-68.891
	c-26.734-10.007-62.087-15.353-107.759-16.268c-4.725-0.094-9.56-0.142-14.507-0.142c-4.948,0-9.782,0.047-14.507,0.142
	c-45.672,0.914-81.025,6.261-107.759,16.268c-36.907,13.816-57.812,36.994-62.133,68.891l-4.418,32.603h0.001L49.828,330.095H0
	v15.687h31.589c4.591,53.141,54.689,80.068,56.921,81.24l1.713,0.899h331.553l1.713-0.899c2.232-1.171,52.329-28.099,56.921-81.24
	h31.589v-15.687h-49.827L444.816,201.983z M87.146,171.485c2.65-19.568,12.897-34.82,31.15-46.199
	c6.084-3.793,13.058-7.156,20.938-10.106C166.943,104.807,205.138,99.766,256,99.766s89.057,5.042,116.766,15.415
	c6.894,2.58,13.095,5.478,18.614,8.703c19.709,11.518,30.713,27.219,33.474,47.601l2.586,19.082
	c-6.729,3.313-11.313,8.683-15.179,13.209c-2.376,2.783-4.62,5.411-7.075,7.348l-2.984,2.355v41.991c0,3.495-2.844,6.339-6.34,6.339
	s-6.34-2.844-6.34-6.339v-41.16l-3.447-2.333c-2.924-1.98-5.504-5.004-8.236-8.206c-6.212-7.283-13.944-16.346-29.154-16.346
	s-22.942,9.065-29.153,16.348c-2.44,2.86-4.744,5.563-7.279,7.515l-3.057,2.355v66.41c0,3.495-2.844,6.34-6.34,6.34
	s-6.341-2.844-6.341-6.34v-65.869l-3.358-2.34c-2.838-1.98-5.36-4.937-8.03-8.068c-6.211-7.284-13.938-16.35-29.147-16.35
	c-15.208,0-22.936,9.066-29.144,16.351c-5.901,6.923-9.609,10.84-17.205,10.84c-7.597,0-11.305-3.917-17.204-10.84
	c-6.209-7.285-13.936-16.351-29.144-16.351c-15.206,0-22.933,9.066-29.141,16.351c-2.652,3.113-5.159,6.053-7.974,8.032
	l-3.334,2.343v23.246c0,3.495-2.844,6.339-6.339,6.339c-3.496,0-6.34-2.844-6.34-6.339v-23.709l-3.082-2.354
	c-2.56-1.955-4.884-4.676-7.344-7.557c-3.864-4.525-8.449-9.893-15.176-13.206L87.146,171.485z M82.211,207.907
	c1.757,1.63,3.533,3.639,5.596,6.055c2.072,2.426,4.196,4.913,6.668,7.221v16.212c0,12.145,9.881,22.025,22.027,22.025
	s22.024-9.881,22.024-22.025v-15.396c2.855-2.528,5.238-5.322,7.561-8.048c5.899-6.922,9.608-10.839,17.201-10.839
	c7.598,0,11.306,3.918,17.205,10.84c6.208,7.285,13.935,16.351,29.143,16.351s22.936-9.066,29.144-16.351
	c5.901-6.923,9.61-10.84,17.205-10.84c7.599,0,11.308,3.916,17.21,10.84c2.345,2.751,4.749,5.571,7.638,8.115v57.987
	c0,12.145,9.881,22.027,22.028,22.027c12.145,0,22.027-9.881,22.027-22.027v-58.949c2.438-2.289,4.536-4.749,6.584-7.151
	c5.905-6.924,9.615-10.841,17.217-10.841c7.603,0,11.313,3.916,17.219,10.84c2.32,2.718,4.866,5.705,7.93,8.359v33.16
	c0,12.145,9.881,22.025,22.027,22.025c12.145,0,22.027-9.881,22.027-22.025v-34.634c2.319-2.211,4.333-4.57,6.299-6.873
	c2.064-2.418,3.84-4.428,5.598-6.058l16.553,122.19H65.658L82.211,207.907z M464.634,345.781
	c-4.241,38.939-39.024,61.771-46.874,66.453H94.24c-7.874-4.698-42.635-27.527-46.874-66.453h0.337h416.596H464.634z"/>
<path d="M211.882,240.782c-12.659,0-22.958,10.299-22.958,22.959c0,12.659,10.299,22.958,22.958,22.958
	c12.659,0,22.958-10.299,22.958-22.958C234.84,251.081,224.541,240.782,211.882,240.782z M211.882,271.012
	c-4.01,0-7.271-3.262-7.271-7.271s3.262-7.272,7.271-7.272s7.271,3.263,7.271,7.272S215.892,271.012,211.882,271.012z"/>
<g>
</g>
<g>
</g>
<g>
</g>
<g>
</g>
<g>
</g>
<g>
</g>
<g>
</g>
<g>
</g>
<g>
</g>
<g>
</g>
<g>
</g>
<g>
</g>
<g>
</g>
<g>
</g>
<g>
</g>
</svg>
